<svg width="32" height="32" viewBox="0 0 32 32" fill="none" xmlns="http://www.w3.org/2000/svg">
<path fill-rule="evenodd" clip-rule="evenodd" d="M20.1859 2.0856H20.4952C20.7836 2.0856 21.0004 2.02859 21.1437 1.91401C21.2871 1.79999 21.3588 1.63348 21.3588 1.41561C21.3588 1.19548 21.2984 1.03292 21.1787 0.927372C21.0579 0.822387 20.87 0.769329 20.6132 0.769329H20.1859V2.0856ZM22.3082 1.38231C22.3082 1.85926 22.1586 2.22389 21.8606 2.47619C21.5625 2.72962 21.1386 2.85549 20.5889 2.85549H20.1859V4.43197H19.2461V0H20.6617C21.199 0 21.6077 0.115145 21.8877 0.34713C22.1676 0.578549 22.3082 0.923421 22.3082 1.38231ZM16.9251 4.43197H16.0006V0H18.5411V0.769329H16.9251V1.91288H18.4288V2.67995H16.9251V4.43197ZM14.371 4.43197H13.3009L12.7009 2.10366C12.6783 2.02069 12.6405 1.84966 12.5868 1.59002C12.5332 1.32982 12.5022 1.15541 12.4943 1.06679C12.4824 1.17629 12.4519 1.35183 12.404 1.59284C12.3549 1.83442 12.3176 2.00714 12.2916 2.10987L11.6939 4.43197H10.6271L9.49598 0H10.4211L10.9878 2.41862C11.0871 2.86565 11.1582 3.25286 11.2028 3.58023C11.2153 3.46509 11.2429 3.28672 11.2864 3.04514C11.3298 2.803 11.371 2.61561 11.4094 2.48296L12.0551 0H12.943L13.5887 2.48296C13.6175 2.59359 13.6525 2.76405 13.6954 2.99209C13.7372 3.22069 13.7699 3.41655 13.7919 3.58023C13.8122 3.42219 13.8444 3.22577 13.889 2.99039C13.9336 2.75502 13.9737 2.56481 14.0104 2.41862L14.5742 0H15.4988L14.371 4.43197ZM12.0721 19.8485C10.35 19.8485 9.2448 20.2571 8.94283 20.3841C8.92533 20.392 8.91065 20.3666 8.92477 20.3525C10.8168 18.3855 13.0322 18.4938 13.5656 18.4938C14.1046 18.4938 19.8653 18.4938 19.8653 18.4938C20.1831 18.4938 20.4404 18.7969 20.4404 19.1717C20.4404 19.5454 20.1831 19.8485 19.8653 19.8485C19.8653 19.8485 13.5436 19.8485 12.0721 19.8485ZM13.4916 21.5898C11.6358 21.5898 11.095 20.5354 8.28639 21.2313C8.26719 21.2364 8.25421 21.2099 8.27058 21.1986C9.83633 20.1245 11.5392 20.2221 12.2279 20.2221C12.7669 20.2221 19.8653 20.2221 19.8653 20.2221C20.1831 20.2221 20.4404 20.5252 20.4404 20.8989C20.4404 21.2726 20.1831 21.5757 19.8653 21.5757C19.8653 21.5757 14.9609 21.5898 13.4916 21.5898ZM13.6231 23.304C11.7187 23.304 11.5663 21.8985 8.74302 21.5819C8.72326 21.5796 8.721 21.5503 8.74019 21.5457C11.0595 20.9655 11.9225 21.9493 13.2766 21.9493C13.8162 21.9493 19.8653 21.9493 19.8653 21.9493C20.1831 21.9493 20.4404 22.2524 20.4404 22.6266C20.4404 23.0009 20.1831 23.304 19.8653 23.304C19.8653 23.304 15.0941 23.304 13.6231 23.304ZM13.21 18.1207C11.677 18.1207 10.4059 18.7896 10.1084 18.9584C10.0915 18.9674 10.0751 18.9476 10.0858 18.9324C10.3347 18.5661 11.6775 16.7666 13.9861 16.7666C14.5251 16.7666 19.8653 16.7666 19.8653 16.7666C20.1831 16.7666 20.4404 17.0697 20.4404 17.444C20.4404 17.8176 20.1831 18.1207 19.8653 18.1207C19.8653 18.1207 14.6809 18.1207 13.21 18.1207ZM21.6433 14.3813C21.584 14.3215 21.4954 14.278 21.3926 14.2656C21.317 14.2555 21.2493 14.2673 21.1883 14.2899C21.2148 14.234 21.2374 14.1742 21.2459 14.1036C21.2611 13.9947 21.2402 13.892 21.199 13.8146C21.0094 13.3992 21.5513 12.5678 21.483 12.5305C21.418 12.4944 21.1099 13.4111 20.8107 13.7813C20.7531 13.8491 20.7114 13.9461 20.6978 14.0573C20.6877 14.1668 20.7057 14.2701 20.7469 14.3469C20.7887 14.4214 20.8519 14.4745 20.9264 14.479C20.9467 14.4818 20.9676 14.4801 20.9868 14.4756C20.9823 14.4863 20.9783 14.4982 20.9767 14.5089C20.9648 14.5896 20.9958 14.6664 21.0568 14.7279C21.1161 14.7905 21.203 14.8323 21.3057 14.8447C21.4107 14.8583 21.5084 14.8374 21.584 14.7922C21.9898 14.5704 22.8314 14.3514 22.8133 14.2735C22.797 14.1956 21.9763 14.6771 21.6433 14.3813ZM22.2636 13.7751C22.2077 13.7142 22.1275 13.6718 22.0344 13.6628C21.9808 13.66 21.9322 13.669 21.8831 13.6871C21.8905 13.6611 21.9006 13.6391 21.904 13.6131C21.9142 13.5143 21.8905 13.4229 21.8459 13.3524C21.6399 12.9702 22.1778 12.2483 22.1084 12.2128C22.0389 12.1766 21.7437 12.9849 21.4446 13.3044C21.3853 13.3614 21.3441 13.4455 21.3334 13.5443C21.3243 13.6436 21.3469 13.7367 21.3898 13.8067C21.4372 13.8762 21.5021 13.9253 21.5806 13.936C21.615 13.9388 21.6506 13.9326 21.6816 13.9241C21.6799 13.9281 21.6754 13.9343 21.6771 13.9388C21.6698 14.0229 21.7008 14.1036 21.7556 14.1635C21.812 14.2238 21.8933 14.2656 21.9836 14.2735C22.0773 14.282 22.1631 14.2566 22.228 14.2075C22.578 13.9552 23.3778 13.8056 23.3569 13.7243C23.3377 13.6464 22.5718 14.0692 22.2636 13.7751ZM22.8077 13.2146C22.7496 13.1712 22.6711 13.1469 22.5881 13.1559C22.548 13.1576 22.5114 13.1695 22.4769 13.1847C22.4831 13.1678 22.4933 13.1542 22.4995 13.1379C22.5215 13.0526 22.5142 12.9651 22.486 12.8952C22.3556 12.5198 22.933 11.965 22.8771 11.9198C22.8207 11.878 22.4459 12.5503 22.1377 12.7868C22.0784 12.8308 22.031 12.8997 22.0073 12.9866C21.9825 13.0701 21.9898 13.1588 22.0192 13.2282C22.0502 13.2987 22.101 13.3507 22.1687 13.3721C22.2207 13.3885 22.2726 13.3778 22.3217 13.3569C22.311 13.3851 22.3053 13.4184 22.3082 13.4528C22.3155 13.5296 22.3528 13.5939 22.4137 13.6391C22.4713 13.6837 22.5497 13.7063 22.631 13.7006C22.7157 13.6916 22.7885 13.6555 22.8382 13.6013C23.1153 13.3207 23.8056 13.0583 23.778 12.9911C23.748 12.9234 23.1277 13.4229 22.8077 13.2146ZM23.8767 12.0101C23.8192 11.9249 23.336 12.4543 22.9793 12.5051C22.9127 12.5142 22.8382 12.5469 22.7766 12.6056C22.7095 12.6654 22.6666 12.7388 22.6519 12.8094C22.6355 12.8788 22.6463 12.946 22.683 12.9922C22.723 13.0408 22.784 13.0617 22.8517 13.0538C22.92 13.0464 22.9911 13.0137 23.0577 12.9516C23.1198 12.8935 23.1633 12.8201 23.1791 12.7507C23.2875 12.3877 23.9196 12.0654 23.8767 12.0101ZM13.8896 12.727C13.8755 12.7794 13.771 13.1875 13.771 13.1875C13.7417 13.2039 13.6175 13.1768 13.5848 13.174C13.3466 13.1514 13.1332 12.9443 13.2247 12.697C13.2997 12.495 13.4527 12.4735 13.6469 12.4645C13.7276 12.4611 13.8726 12.4803 13.9454 12.5305C13.9454 12.5305 13.9167 12.6237 13.8896 12.727ZM13.6158 13.9586C13.6085 14.0048 13.6011 14.0511 13.5938 14.098C13.4454 14.0048 13.3584 13.7921 13.4295 13.6238C13.4843 13.4963 13.6198 13.463 13.7197 13.4573C13.6841 13.6238 13.6486 13.7904 13.6158 13.9586ZM13.4025 15.4803C13.3838 15.5847 13.2427 15.5988 13.1462 15.6276C12.8662 15.7117 12.601 15.6756 12.5152 15.3409C12.422 14.983 12.693 14.8323 12.9836 14.7623C13.1417 14.7251 13.2884 14.7561 13.3968 14.8899C13.4239 14.9232 13.4561 14.9531 13.4634 14.9847C13.4634 14.9847 13.42 15.3821 13.4025 15.4803ZM12.5214 13.7181C12.7375 13.6662 12.9611 13.5849 13.127 13.7977C13.302 14.0212 13.2438 14.3796 12.9628 14.4745C12.7776 14.5371 12.5535 14.5913 12.3955 14.44C12.1878 14.2419 12.203 13.7921 12.5214 13.7181ZM12.3097 12.5576C12.5372 12.5023 12.7731 12.4182 12.9481 12.6417C13.1298 12.8754 13.0694 13.2536 12.7742 13.3524C12.5789 13.4167 12.3436 13.4737 12.1776 13.3145C11.9598 13.108 11.9761 12.6355 12.3097 12.5576ZM12.0975 15.0666C12.0382 15.2754 11.8661 15.3064 11.686 15.3499C11.5675 15.2048 11.2491 14.8368 11.2435 14.7934C11.2418 14.7793 11.2435 14.7629 11.2503 14.7426C11.2649 14.6991 11.3152 14.6573 11.3524 14.6331C11.4608 14.5625 11.6916 14.5106 11.8164 14.536C12.0399 14.584 12.1567 14.8566 12.0975 15.0666ZM10.9658 13.9947C10.8027 13.4167 11.7718 13.165 11.9214 13.7317C12.0755 14.3142 11.0979 14.5614 10.9658 13.9947ZM10.8235 12.841C10.6576 12.2669 11.6312 12.0146 11.7808 12.5785C11.9349 13.1616 10.9556 13.4094 10.8235 12.841ZM10.6875 11.707C10.5289 11.1719 11.4427 10.9349 11.5821 11.4626C11.7255 12.0056 10.8117 12.2398 10.6875 11.707ZM10.5938 13.8897C10.5492 13.9162 10.5323 13.9303 10.517 13.9303L10.0824 13.4573C10.0875 13.4438 10.2218 13.3467 10.267 13.3207C10.6282 13.1198 10.9257 13.6944 10.5938 13.8897ZM9.76917 12.8246C9.55411 12.3505 10.3364 11.8363 10.5735 12.3477C10.7908 12.8184 10.0085 13.3416 9.76917 12.8246ZM10.4267 11.3232C10.674 11.7629 9.9289 12.2534 9.71554 11.7804C9.52589 11.3729 10.188 10.897 10.4267 11.3232ZM9.80134 10.2987C9.9114 10.2017 10.0384 10.1492 10.1688 10.2118C10.3776 10.3123 10.3838 10.6256 10.2015 10.7503C10.1186 10.8073 9.97801 10.8779 9.87584 10.8525C9.65176 10.7954 9.60886 10.4686 9.80134 10.2987ZM9.82956 9.35669C9.91987 9.29573 10.0401 9.24098 10.144 9.28332C10.3325 9.36065 10.3257 9.6344 10.1733 9.7439C10.1033 9.79357 9.97801 9.85509 9.89334 9.83252C9.70256 9.78454 9.65571 9.47466 9.82956 9.35669ZM10.3302 8.01446C10.4425 7.95407 10.6045 7.92867 10.705 8.04155C10.8235 8.1742 10.7852 8.37626 10.6294 8.45585C10.5097 8.51568 10.3483 8.53826 10.2535 8.42706C10.1496 8.3074 10.171 8.10082 10.3302 8.01446ZM10.2416 9.0344C10.1507 8.69856 10.7169 8.53995 10.8089 8.88144C10.911 9.21276 10.3319 9.37814 10.2416 9.0344ZM11.1537 9.62085C11.2858 9.98379 10.6711 10.1892 10.5509 9.83082C10.4284 9.46789 11.0459 9.26074 11.1537 9.62085ZM11.2311 7.85247C11.3485 7.80562 11.4986 7.75482 11.6296 7.85247C11.7927 7.97438 11.7571 8.2487 11.5703 8.33393C11.4472 8.38981 11.2903 8.42706 11.1808 8.32942C11.0414 8.20524 11.0335 7.93149 11.2311 7.85247ZM11.1227 10.8897C10.9567 10.9287 10.7835 10.9947 10.6457 10.8525C10.4696 10.6707 10.5199 10.3529 10.7586 10.266C10.9127 10.2073 11.108 10.1746 11.2339 10.3033C11.3953 10.4686 11.3778 10.8282 11.1227 10.8897ZM11.1255 9.03609C11.0194 8.67598 11.6058 8.49141 11.7182 8.8408C11.8339 9.19922 11.2265 9.39 11.1255 9.03609ZM12.1076 9.69592C12.2454 10.1068 11.5511 10.3258 11.4235 9.92113C11.2948 9.50683 11.9942 9.28783 12.1076 9.69592ZM12.1449 8.59527C12.2674 8.56253 12.3966 8.57438 12.4898 8.67429C12.632 8.82725 12.5835 9.08859 12.3729 9.12753C12.2741 9.14559 12.1212 9.13826 12.0439 9.07052C11.905 8.94748 11.9118 8.65792 12.1449 8.59527ZM12.7375 9.45773C12.9611 9.45773 13.074 9.78623 12.9436 9.94936C12.8651 10.0481 12.6958 10.0543 12.5806 10.0363C12.3673 10.0035 12.2307 9.72866 12.3746 9.54296C12.4621 9.43064 12.6117 9.45773 12.7375 9.45773ZM11.6634 10.8101C11.5257 10.3377 12.3283 10.1266 12.4514 10.5956C12.5761 11.0726 11.769 11.2826 11.6634 10.8101ZM12.1556 11.4146C12.3746 11.3921 12.6026 11.3413 12.7375 11.571C12.8781 11.8137 12.7731 12.1512 12.4886 12.2082C12.3018 12.2472 12.0755 12.2652 11.9423 12.0999C11.7673 11.8814 11.8367 11.4446 12.1556 11.4146ZM13.2698 10.3625C13.5407 10.4743 13.6322 10.7938 13.4414 10.9721C13.3387 11.0652 13.1524 11.0472 13.0265 11.0218C12.7742 10.9721 12.61 10.5939 12.8307 10.4145C12.9441 10.3224 13.1468 10.3112 13.2698 10.3625ZM13.696 11.5016C13.8659 11.7104 13.8026 12.079 13.5046 12.097C13.3494 12.1061 13.1462 12.088 13.0412 11.9604C12.8724 11.7567 12.9362 11.374 13.2337 11.3638C13.3895 11.3576 13.591 11.374 13.696 11.5016ZM14.8469 7.74014C14.8305 7.71644 14.8011 7.70289 14.7712 7.71192C14.7357 7.72377 14.712 7.76272 14.7255 7.79715C15.4056 9.62424 14.537 10.524 14.174 11.803C13.7389 10.7638 15.1816 9.78623 14.4382 7.89198C14.4275 7.86771 14.4083 7.84795 14.3818 7.844C14.3445 7.83892 14.3089 7.85416 14.3033 7.90383C14.2841 8.03704 14.1966 9.08689 13.3449 9.70213C13.2574 9.50119 13.1287 9.29122 12.9481 9.12584C12.8691 8.77194 12.6382 8.28596 12.1522 8.14259C12.0794 7.95915 11.9332 7.69668 11.6516 7.55557C11.3863 7.42349 11.0798 7.43535 10.7389 7.59C10.3274 7.63798 10.044 7.79884 9.89503 8.06695C9.75392 8.32039 9.77932 8.5964 9.82674 8.78435C9.48017 9.15462 9.4638 9.70326 9.47283 9.91831C9.26681 10.4128 9.38252 10.9902 9.44744 11.2301C9.20134 11.9023 9.44179 12.5542 9.53774 12.7704C9.53774 12.8291 9.54057 12.8844 9.54395 12.9397C8.73794 12.0581 6.90408 10.9659 6.20361 10.5494C6.17087 10.5296 6.1291 10.5341 6.10144 10.5612C6.06589 10.5945 6.06419 10.6481 6.09693 10.6843C7.65929 12.2082 9.05346 14.0889 10.3923 17.9915C11.0606 17.2966 12.2679 16.3834 13.9861 16.3834H15.996C14.7193 11.6263 16.5785 9.92395 14.8469 7.74014ZM24.3497 10.2C23.9823 10.104 21.6359 9.68858 19.0062 14.5253C19.39 12.7241 20.5561 10.5448 20.8756 9.9121V9.90759C20.8954 9.87146 20.8846 9.82461 20.8519 9.79921C20.8197 9.77551 20.7706 9.78285 20.7452 9.81897C19.0079 12.7162 18.3977 14.3858 18.0376 16.3834H19.1264C19.3116 14.4575 21.7437 9.92113 24.3362 10.2581H24.339C24.3543 10.2615 24.3672 10.2491 24.3689 10.2361C24.3746 10.2192 24.3644 10.2028 24.3497 10.2ZM19.1219 26.1352L18.5338 23.6771H17.5324C17.6911 24.3008 17.9174 24.9352 18.2109 25.4917C18.2301 25.5245 18.2657 25.5442 18.3012 25.5386C18.3486 25.5324 18.3859 25.4827 18.3769 25.4313C18.3086 24.9109 18.2273 24.4091 18.1499 23.9079C18.3622 24.6953 18.6478 25.4646 19.0333 26.173C19.0434 26.195 19.0655 26.2052 19.0863 26.1984C19.1146 26.1922 19.1292 26.1623 19.1219 26.1352ZM20.1339 25.0193C20.0312 24.6084 19.9245 24.1043 19.8331 23.6771H19.4521C19.6006 24.1331 19.8004 24.6417 19.9782 25.0763C19.9957 25.1186 20.0357 25.1395 20.0741 25.1288C20.1204 25.1152 20.1452 25.0661 20.1339 25.0193ZM20.2609 26.4648L20.2581 26.4592C20.1351 26.1154 19.9646 25.8078 19.8297 25.4782C19.6863 25.148 19.5469 24.824 19.4312 24.4853C19.3353 24.2319 19.2331 23.9412 19.1546 23.6771H18.7872C18.8911 23.9847 19.026 24.316 19.1518 24.6129C19.4284 25.2835 19.7484 25.9405 20.156 26.528C20.1706 26.5495 20.1989 26.558 20.2254 26.5478C20.2581 26.5354 20.2728 26.4981 20.2609 26.4648ZM20.8107 14.6681C20.7825 14.6257 20.7142 14.6167 20.682 14.6511C20.0137 15.3561 19.609 16.1062 19.4702 16.3834H19.867C20.0656 15.9172 20.5127 15.0936 20.8005 14.7968L20.8034 14.7939C20.8327 14.7606 20.8384 14.7053 20.8107 14.6681ZM17.7887 11.256C18.1562 10.6526 18.7014 10.1909 19.1637 9.63327C19.18 9.61182 19.1784 9.57908 19.1586 9.56102C19.1411 9.54127 19.1112 9.54127 19.0926 9.55933C18.987 9.67165 18.8775 9.7772 18.7652 9.88162C18.7161 9.85792 18.5919 9.90589 18.4655 10.0047C18.3667 10.0831 18.2956 10.17 18.2702 10.2327C18.2064 10.218 18.0867 10.2925 17.9784 10.4308C17.8892 10.5465 17.8378 10.6679 17.8389 10.743C17.7706 10.7486 17.6719 10.8355 17.5872 10.9738C17.5324 11.0652 17.4969 11.1539 17.485 11.2272C17.4303 11.2645 17.3682 11.3351 17.3106 11.4265C17.235 11.5529 17.196 11.6799 17.2079 11.7533C17.1904 11.7855 17.1723 11.8154 17.1577 11.8464C17.1605 11.821 17.1639 11.7973 17.1667 11.7719C17.2751 10.9179 17.4314 10.0724 17.6702 9.25679C17.9101 8.44343 18.1974 7.6233 18.6907 6.9646L18.6941 6.96178C18.7189 6.92566 18.7161 6.87655 18.685 6.84325C18.654 6.80882 18.6021 6.80713 18.5693 6.84156C18.3989 7.02331 18.2555 7.22594 18.1262 7.43422C18.0704 7.4043 17.9518 7.5155 17.8615 7.68934C17.7785 7.84626 17.7486 7.99188 17.7802 8.04776C17.7802 8.04776 17.7785 8.05228 17.7752 8.05058C17.7159 8.02518 17.6064 8.15726 17.5398 8.33393C17.4749 8.50044 17.463 8.65341 17.5076 8.70477C17.5042 8.70759 17.5042 8.70928 17.5025 8.71211C17.4365 8.68783 17.3281 8.83967 17.2615 9.05416C17.2062 9.23534 17.2006 9.39282 17.2406 9.45604C17.2435 9.45886 17.2406 9.46676 17.2378 9.46507C17.1695 9.4408 17.0657 9.59715 17.0053 9.80994C16.9443 10.0154 16.9488 10.1971 17.0064 10.2327C16.9398 10.2254 16.8467 10.3812 16.7976 10.5928C16.7535 10.7757 16.758 10.9332 16.8009 10.9964C16.7355 11.0156 16.6632 11.1685 16.626 11.3667C16.5904 11.5603 16.6079 11.7206 16.6553 11.7719C16.5949 11.803 16.5328 11.9604 16.5103 12.1557C16.4882 12.3493 16.5165 12.508 16.5667 12.5593C16.5165 12.6158 16.4674 12.7507 16.4465 12.9132C16.4262 13.0673 16.4391 13.2011 16.469 13.2762C16.4143 13.3224 16.3725 13.4788 16.3708 13.6662C16.3669 13.8158 16.3889 13.9433 16.4273 14.0167C16.3979 14.0918 16.377 14.2013 16.377 14.3226C16.3742 14.4801 16.3991 14.615 16.4391 14.6856C16.4273 15.2393 16.4346 15.8285 16.4645 16.3834H17.66C17.6685 15.9516 17.6973 15.4803 17.7396 15.053C17.8243 14.291 17.9501 13.5172 18.3311 12.8664L18.334 12.8619C18.3458 12.8382 18.3441 12.8111 18.3266 12.7902C18.304 12.7704 18.273 12.7704 18.2521 12.7947C17.7351 13.3947 17.5087 14.2092 17.3755 14.9904C17.3518 15.1433 17.3326 15.2974 17.3146 15.4509C17.3473 14.8238 17.4049 14.1996 17.5488 13.6058C17.7131 12.8827 18.0421 12.1947 18.6687 11.8092C18.6879 11.7973 18.6986 11.7719 18.6907 11.746C18.6833 11.7177 18.654 11.7014 18.6286 11.7087C18.5885 11.7206 18.5518 11.7414 18.5129 11.7584C18.4717 11.707 18.3193 11.7448 18.1618 11.8447C18.0122 11.9424 17.9129 12.0626 17.9236 12.1287C17.9236 12.1315 17.9163 12.136 17.9163 12.1298C17.9146 12.1224 17.9129 12.1151 17.9089 12.1106C17.8525 12.0643 17.7012 12.1693 17.5737 12.3477C17.445 12.526 17.3947 12.7123 17.4495 12.7603C17.4523 12.7614 17.4512 12.7659 17.4483 12.7659C17.3812 12.7388 17.2705 12.8906 17.2006 13.1023C17.1503 13.2502 17.1385 13.3868 17.1565 13.4652C17.1565 13.4675 17.1531 13.4709 17.1531 13.4709C17.1012 13.6419 17.0583 13.8146 17.0182 13.9896C17.0335 13.7424 17.0555 13.4935 17.0911 13.2474C17.196 12.5396 17.4094 11.8464 17.7887 11.256ZM21.5496 9.28162C21.4739 9.24606 21.3751 9.23703 21.2758 9.26074C21.2019 9.2788 21.1426 9.31493 21.0918 9.35669C21.0991 9.29404 21.0991 9.23082 21.0816 9.16196C21.0579 9.05416 21.0043 8.96554 20.9394 8.90853C20.6165 8.58624 20.8384 7.6154 20.7633 7.60355C20.6894 7.59339 20.7159 8.56084 20.5635 9.01352C20.5324 9.09762 20.5262 9.20373 20.5528 9.3121C20.5799 9.41878 20.6329 9.50853 20.6995 9.56666C20.7633 9.62254 20.8401 9.64794 20.9129 9.62537C20.9321 9.62254 20.9513 9.61351 20.9676 9.6011C20.9676 9.61351 20.9676 9.62537 20.9688 9.63722C20.9857 9.71681 21.0416 9.77833 21.1189 9.81445C21.1973 9.85171 21.2933 9.86074 21.3943 9.83534C21.4965 9.81107 21.5806 9.75575 21.6359 9.68858C21.9396 9.33581 22.6536 8.83346 22.6107 8.76629C22.5672 8.70025 21.9644 9.4408 21.5496 9.28162ZM22.9307 8.05962C22.8845 7.99358 22.3127 8.66074 21.9232 8.49423C21.8493 8.45698 21.7584 8.44626 21.6681 8.47053C21.6179 8.48577 21.575 8.51286 21.5349 8.5456C21.5332 8.5185 21.5349 8.49423 21.5292 8.47053C21.5055 8.37344 21.4519 8.29668 21.3853 8.24588C21.0596 7.96084 21.3159 7.09386 21.2386 7.08483C21.1601 7.0758 21.1618 7.93826 20.9925 8.34296C20.9569 8.41803 20.9467 8.51117 20.9721 8.60712C20.9958 8.70308 21.0495 8.78266 21.1161 8.83346C21.1821 8.88144 21.2611 8.90401 21.3379 8.88595C21.3718 8.87692 21.4017 8.85886 21.4282 8.83967C21.4282 8.84418 21.4265 8.84983 21.4282 8.85434C21.4519 8.93732 21.5084 9.00166 21.5806 9.03892C21.6551 9.07335 21.7454 9.0852 21.8329 9.0598C21.9232 9.03609 21.9943 8.98078 22.0389 8.91305C22.2799 8.55181 22.9765 8.12848 22.9307 8.05962ZM23.0713 7.22425C23.0205 7.17175 22.6107 7.85868 22.2387 7.77627C22.1687 7.75651 22.0875 7.76103 22.0135 7.79884C21.9763 7.81352 21.9452 7.83892 21.9187 7.86488C21.9187 7.84795 21.9232 7.83158 21.9232 7.81352C21.9142 7.7266 21.8786 7.64588 21.8267 7.5917C21.5767 7.28577 21.9243 6.5616 21.8577 6.53902C21.79 6.51926 21.6715 7.28125 21.4638 7.61258C21.4226 7.6758 21.4017 7.75651 21.4107 7.84513C21.4163 7.93375 21.4536 8.01333 21.5055 8.06865C21.5586 8.12396 21.6241 8.15444 21.6952 8.14993C21.7482 8.14823 21.794 8.11945 21.8329 8.08219C21.8329 8.11211 21.8386 8.14485 21.8532 8.17645C21.886 8.24588 21.9441 8.29329 22.0147 8.31305C22.0846 8.33563 22.1676 8.32942 22.2416 8.29329C22.3172 8.25604 22.3719 8.19621 22.4019 8.12848C22.5644 7.76724 23.1198 7.27674 23.0713 7.22425ZM22.8252 6.27035C22.7411 6.21052 22.473 6.87768 22.1541 7.05153C22.0948 7.08314 22.0389 7.14015 21.9988 7.21804C21.9588 7.29762 21.9441 7.38172 21.9543 7.45228C21.9616 7.52283 21.9943 7.58266 22.0463 7.61258C22.0993 7.64419 22.1631 7.6425 22.2241 7.61145C22.2861 7.57984 22.3409 7.52283 22.3821 7.44325C22.4211 7.36536 22.4357 7.28125 22.4267 7.2107C22.403 6.83309 22.8845 6.3076 22.8252 6.27035ZM16.9787 23.6771H13.6231C13.3951 23.6771 13.1891 23.659 12.9994 23.6246C13.0011 23.6246 13.0011 23.6257 13.0011 23.6257C13.552 24.4447 14.4156 25.0661 15.2911 25.4827C15.426 26.2295 15.5947 26.9209 15.6557 26.9751C15.7178 27.0287 16.5769 26.7815 16.6039 26.7019C16.6288 26.6229 16.2523 25.3433 16.2523 25.3433C16.7044 24.5677 16.8438 24.11 16.9787 23.6771ZM25.4188 29.4168C24.5716 29.7515 23.4664 29.7792 22.5644 29.5399C20.498 28.8964 18.2036 27.6772 16.0006 28.6893C13.7981 27.6772 11.5037 28.8964 9.43727 29.5399C8.5353 29.7792 7.43013 29.7515 6.58291 29.4168C6.5592 29.4078 6.54114 29.4377 6.56203 29.4541C7.78121 30.3973 9.4892 30.8313 11.0267 30.2759C12.5033 29.8159 13.7524 28.2513 15.5016 28.919C14.1165 29.4603 12.8216 30.4594 11.822 31.402L12.549 31.9991C13.4572 30.9419 14.4794 29.8848 15.6365 29.2413C15.7945 29.1482 15.8894 29.1109 16.0006 29.1047C16.1123 29.1109 16.2066 29.1482 16.3635 29.2413C17.5223 29.8848 18.5445 30.9419 19.4521 31.9991L20.1797 31.402C19.18 30.4594 17.8852 29.4603 16.5001 28.919C18.2493 28.2513 19.4984 29.8159 20.975 30.2759C22.5125 30.8313 24.2205 30.3973 25.4397 29.4541C25.4589 29.4377 25.4425 29.4078 25.4188 29.4168ZM11.7994 27.9916C9.63991 27.4684 9.04894 25.4438 7.2433 24.5649C7.22411 24.5548 7.20323 24.5773 7.21508 24.5948C7.78404 25.5307 8.09222 26.9643 9.73191 27.8483C9.74546 27.855 9.73812 27.8765 9.72288 27.872C7.37087 27.4193 6.38253 28.0486 3.91763 26.9344C3.89675 26.9254 3.87474 26.948 3.88828 26.9677C4.69825 28.1435 6.62073 28.9472 9.25496 28.7254C10.2032 28.6447 10.8901 28.2456 11.7994 28.0328C11.822 28.0266 11.822 27.9961 11.7994 27.9916ZM7.27604 26.7499C6.45535 25.6746 6.68903 23.379 4.83597 21.2776C4.8213 21.2613 4.79477 21.2742 4.79929 21.2951C5.15319 22.8428 5.04764 24.601 6.01678 25.8891C6.02581 25.9026 6.01226 25.9162 5.99872 25.9072C4.08809 24.4029 2.12385 23.9497 1.24953 22.7322C1.23655 22.7158 1.21002 22.7243 1.21284 22.7457C1.42902 24.3216 4.45667 26.7786 7.25967 26.7832C7.27604 26.7832 7.2862 26.764 7.27604 26.7499ZM4.40644 23.8915C3.52648 22.2598 4.57803 19.77 3.5801 17.3508C3.56937 17.3254 3.53099 17.3316 3.53099 17.3587C3.50164 18.6795 2.68095 20.6522 3.17709 22.1412C3.18273 22.1548 3.16524 22.1621 3.1579 22.1503C1.89412 20.304 0.891679 19.9185 0.0557455 18.2285C0.0438923 18.2031 0.00551053 18.2099 0.00381721 18.237C-0.04924 19.3856 0.458755 20.322 1.03222 21.1918C1.94887 22.3687 3.12968 23.3006 4.37821 23.9215C4.39797 23.9305 4.41547 23.9107 4.40644 23.8915ZM3.80982 13.954C3.80813 13.927 3.77257 13.9179 3.75903 13.9416C3.08791 15.1969 1.89299 16.196 1.85405 17.8537C1.85292 17.8701 1.83486 17.8712 1.83203 17.856C1.61416 16.577 0.528745 15.1433 0.481332 13.2908C0.481332 13.2626 0.441257 13.2553 0.430533 13.2818C-0.462409 15.6908 0.821688 17.9745 2.18876 19.8615C2.204 19.8806 2.23335 19.8694 2.23335 19.8434C2.17747 17.8442 3.9103 16.3518 3.80982 13.954ZM4.66269 10.8372C4.02883 11.7177 2.60249 12.3403 2.08095 13.6103C2.07361 13.6284 2.05104 13.6238 2.05442 13.603C2.26157 12.1795 1.71181 10.5268 2.2277 8.63591C2.23504 8.60881 2.20118 8.59075 2.18481 8.61164C1.40532 9.57005 1.14172 10.6933 1.09883 11.9068C1.04577 13.3975 1.56957 14.4846 1.82921 15.4955C1.83486 15.5198 1.8659 15.5181 1.87211 15.4938C2.2452 14.1685 4.11914 13.3704 4.70559 10.8581C4.71349 10.8316 4.67906 10.8146 4.66269 10.8372ZM6.38253 7.87674C5.34002 8.69404 3.74717 9.48144 3.40512 10.0498C3.39948 10.0617 3.38142 10.0526 3.38424 10.0408L3.77088 8.18548C3.94416 7.39809 4.09374 6.644 4.52948 5.93902C4.54303 5.91814 4.51763 5.89387 4.49844 5.9091C2.51331 7.48107 2.80343 9.75406 2.71594 11.6156C2.71481 11.6353 2.73852 11.6444 2.75207 11.6308C3.92045 10.3631 5.82543 9.62537 6.41527 7.90214C6.42261 7.88125 6.40003 7.86319 6.38253 7.87674ZM7.85967 5.02689C6.1054 5.08277 4.81678 6.5599 4.2642 8.44061C4.26138 8.45134 4.27605 8.46037 4.28508 8.45416C6.70144 6.68295 6.56598 5.92378 7.87435 5.08107C7.89805 5.06583 7.88789 5.02689 7.85967 5.02689ZM28.0824 26.9344C25.6192 28.0486 24.6297 27.4193 22.2771 27.872C22.2624 27.8765 22.2551 27.855 22.2681 27.8483C23.9078 26.9643 24.216 25.5307 24.7849 24.5948C24.7968 24.5773 24.7765 24.5548 24.7567 24.5649C22.9528 25.4438 22.3618 27.4684 20.2005 27.9916C20.178 27.9961 20.178 28.0266 20.2005 28.0328C21.1099 28.2456 21.7973 28.6447 22.745 28.7254C25.3787 28.9472 27.3034 28.1435 28.1123 26.9677C28.1253 26.948 28.1033 26.9254 28.0824 26.9344ZM30.7499 22.7322C29.8762 23.9497 27.9119 24.4029 26.0013 25.9072C25.9894 25.9162 25.9748 25.9026 25.9849 25.8891C26.9524 24.601 26.8468 22.8428 27.2007 21.2951C27.2052 21.2742 27.1787 21.2613 27.164 21.2776C25.3121 23.379 25.5447 25.6746 24.7257 26.7499C24.7155 26.764 24.724 26.7832 24.742 26.7832C27.5445 26.7786 30.571 24.3216 30.7872 22.7457C30.79 22.7243 30.7634 22.7158 30.7499 22.7322ZM31.9962 18.237C31.9945 18.2099 31.9561 18.2031 31.9443 18.2285C31.1089 19.9185 30.1059 20.304 28.8438 22.1503C28.8348 22.1621 28.8184 22.1548 28.8235 22.1412C29.319 20.6522 28.5001 18.6795 28.469 17.3587C28.469 17.3316 28.4306 17.3254 28.4205 17.3508C27.422 19.77 28.4735 22.2598 27.5953 23.8915C27.5845 23.9107 27.6026 23.9305 27.6218 23.9215C28.8709 23.3006 30.0511 22.3687 30.9678 21.1918C31.5412 20.322 32.0492 19.3856 31.9962 18.237ZM31.5695 13.2818C31.5593 13.2553 31.5192 13.2626 31.5192 13.2908C31.4718 15.1433 30.3858 16.577 30.168 17.856C30.1651 17.8712 30.1476 17.8701 30.1476 17.8537C30.1087 16.196 28.9121 15.1969 28.241 13.9416C28.2274 13.9179 28.1919 13.927 28.1919 13.954C28.0914 16.3518 29.8231 17.8442 29.7667 19.8434C29.7667 19.8694 29.7977 19.8806 29.8124 19.8615C31.1783 17.9745 32.4624 15.6908 31.5695 13.2818ZM30.9012 11.9068C30.8583 10.6933 30.5947 9.57005 29.8158 8.61164C29.7994 8.59075 29.7666 8.60881 29.7729 8.63591C30.2882 10.5268 29.7384 12.1795 29.9473 13.603C29.9501 13.6238 29.927 13.6284 29.9191 13.6103C29.3981 12.3403 27.9712 11.7177 27.3373 10.8372C27.3226 10.8146 27.2882 10.8316 27.2944 10.8581C27.8809 13.3704 29.7548 14.1685 30.1285 15.4938C30.1341 15.5181 30.1651 15.5198 30.1714 15.4955C30.4304 14.4846 30.9548 13.3975 30.9012 11.9068ZM27.5016 5.9091C27.4824 5.89387 27.4575 5.91814 27.4705 5.93902C27.9063 6.644 28.0558 7.39809 28.2291 8.18548L28.6158 10.0408C28.6186 10.0526 28.6005 10.0617 28.5949 10.0498C28.2528 9.48144 26.6617 8.69404 25.6175 7.87674C25.6011 7.86319 25.5774 7.88125 25.5847 7.90214C26.1746 9.62537 28.0795 10.3631 29.2479 11.6308C29.2615 11.6444 29.2852 11.6353 29.2835 11.6156C29.1966 9.75406 29.4867 7.48107 27.5016 5.9091ZM24.1409 5.02689C24.1127 5.02689 24.1036 5.06583 24.1257 5.08107C25.434 5.92378 25.2991 6.68295 27.7149 8.45416C27.7256 8.46037 27.7386 8.45134 27.7358 8.44061C27.1832 6.5599 25.8946 5.08277 24.1409 5.02689Z" fill="#157DBC"/>
</svg>
