<svg xmlns="http://www.w3.org/2000/svg" xmlns:xlink="http://www.w3.org/1999/xlink" contentStyleType="text/css" height="567px" preserveAspectRatio="none" style="width:1376px;height:567px;background:#FFFFFF;" version="1.1" viewBox="0 0 1376 567" width="1376px" zoomAndPan="magnify"><defs/><g><!--cluster Chatbot--><g id="cluster_Chatbot"><rect fill="none" height="443" rx="2.5" ry="2.5" style="stroke:#181818;stroke-width:1;" width="375" x="713" y="7"/><text fill="#000000" font-family="sans-serif" font-size="14" font-weight="bold" lengthAdjust="spacing" textLength="62.7129" x="869.1436" y="21.9951">Chatbot</text></g><!--cluster utils--><g id="cluster_utils"><rect fill="none" height="87" rx="2.5" ry="2.5" style="stroke:#181818;stroke-width:1;" width="716" x="7" y="474"/><text fill="#000000" font-family="sans-serif" font-size="14" font-weight="bold" lengthAdjust="spacing" textLength="34.5898" x="347.7051" y="488.9951">utils</text></g><!--cluster External Libraries--><g id="cluster_External Libraries"><rect fill="none" height="87" rx="2.5" ry="2.5" style="stroke:#181818;stroke-width:1;" width="623" x="747" y="474"/><text fill="#000000" font-family="sans-serif" font-size="14" font-weight="bold" lengthAdjust="spacing" textLength="140.3965" x="988.3018" y="488.9951">External Libraries</text></g><!--entity WSGI--><g id="elem_WSGI"><rect fill="#F1F1F1" height="52.5938" rx="2.5" ry="2.5" style="stroke:#181818;stroke-width:0.5;" width="116.4824" x="954" y="42"/><text fill="#000000" font-family="sans-serif" font-size="14" font-style="italic" lengthAdjust="spacing" textLength="96.4824" x="964" y="64.9951">&#171;component&#187;</text><text fill="#000000" font-family="sans-serif" font-size="14" lengthAdjust="spacing" textLength="53.1426" x="985.6699" y="81.292">wsgi.py</text></g><!--entity APP--><g id="elem_APP"><rect fill="#F1F1F1" height="52.5938" rx="2.5" ry="2.5" style="stroke:#181818;stroke-width:0.5;" width="116.4824" x="954" y="155"/><text fill="#000000" font-family="sans-serif" font-size="14" font-style="italic" lengthAdjust="spacing" textLength="96.4824" x="964" y="177.9951">&#171;component&#187;</text><text fill="#000000" font-family="sans-serif" font-size="14" lengthAdjust="spacing" textLength="47.9746" x="988.2539" y="194.292">app.py</text></g><!--entity AIMODEL--><g id="elem_AIMODEL"><rect fill="#F1F1F1" height="52.5938" rx="2.5" ry="2.5" style="stroke:#181818;stroke-width:0.5;" width="116.4824" x="952" y="268"/><text fill="#000000" font-family="sans-serif" font-size="14" font-style="italic" lengthAdjust="spacing" textLength="96.4824" x="962" y="290.9951">&#171;component&#187;</text><text fill="#000000" font-family="sans-serif" font-size="14" lengthAdjust="spacing" textLength="84.6836" x="967.8994" y="307.292">ai_model.py</text></g><!--entity DBSEARCH--><g id="elem_DBSEARCH"><rect fill="#F1F1F1" height="52.5938" rx="2.5" ry="2.5" style="stroke:#181818;stroke-width:0.5;" width="184.8076" x="728.5" y="381"/><text fill="#000000" font-family="sans-serif" font-size="14" font-style="italic" lengthAdjust="spacing" textLength="96.4824" x="772.6626" y="403.9951">&#171;component&#187;</text><text fill="#000000" font-family="sans-serif" font-size="14" lengthAdjust="spacing" textLength="164.8076" x="738.5" y="420.292">db_similarity_search.py</text></g><!--entity COMPRESSOR--><g id="elem_COMPRESSOR"><rect fill="#F1F1F1" height="52.5938" rx="2.5" ry="2.5" style="stroke:#181818;stroke-width:0.5;" width="123.6875" x="948" y="381"/><text fill="#000000" font-family="sans-serif" font-size="14" font-style="italic" lengthAdjust="spacing" textLength="96.4824" x="961.6025" y="403.9951">&#171;component&#187;</text><text fill="#000000" font-family="sans-serif" font-size="14" lengthAdjust="spacing" textLength="103.6875" x="958" y="420.292">compressor.py</text></g><!--entity CONTEXT_UTILS--><g id="elem_CONTEXT_UTILS"><rect fill="#F1F1F1" height="36.2969" rx="2.5" ry="2.5" style="stroke:#181818;stroke-width:0.5;" width="194.8428" x="22.5" y="509"/><text fill="#000000" font-family="sans-serif" font-size="14" lengthAdjust="spacing" textLength="174.8428" x="32.5" y="531.9951">context_resolver_utils.py</text></g><!--entity TOKEN_UTILS--><g id="elem_TOKEN_UTILS"><rect fill="#F1F1F1" height="36.2969" rx="2.5" ry="2.5" style="stroke:#181818;stroke-width:0.5;" width="166.9521" x="252.5" y="509"/><text fill="#000000" font-family="sans-serif" font-size="14" lengthAdjust="spacing" textLength="146.9521" x="262.5" y="531.9951">token_usage_utils.py</text></g><!--entity DB_UTILS--><g id="elem_DB_UTILS"><rect fill="#F1F1F1" height="36.2969" rx="2.5" ry="2.5" style="stroke:#181818;stroke-width:0.5;" width="95.8311" x="611" y="509"/><text fill="#000000" font-family="sans-serif" font-size="14" lengthAdjust="spacing" textLength="75.8311" x="621" y="531.9951">db_utils.py</text></g><!--entity EMBEDDING--><g id="elem_EMBEDDING"><rect fill="#F1F1F1" height="36.2969" rx="2.5" ry="2.5" style="stroke:#181818;stroke-width:0.5;" width="120.7959" x="454.5" y="509"/><text fill="#000000" font-family="sans-serif" font-size="14" lengthAdjust="spacing" textLength="100.7959" x="464.5" y="531.9951">embedding.py</text></g><!--entity PYMONGO--><g id="elem_PYMONGO"><rect fill="#F1F1F1" height="36.2969" rx="2.5" ry="2.5" style="stroke:#181818;stroke-width:0.5;" width="85.7002" x="858" y="509"/><text fill="#000000" font-family="sans-serif" font-size="14" lengthAdjust="spacing" textLength="65.7002" x="868" y="531.9951">pymongo</text></g><!--entity OPENAI--><g id="elem_OPENAI"><rect fill="#F1F1F1" height="36.2969" rx="2.5" ry="2.5" style="stroke:#181818;stroke-width:0.5;" width="67.4072" x="1091.5" y="509"/><text fill="#000000" font-family="sans-serif" font-size="14" lengthAdjust="spacing" textLength="47.4072" x="1101.5" y="531.9951">openai</text></g><!--entity DOTENV--><g id="elem_DOTENV"><rect fill="#F1F1F1" height="36.2969" rx="2.5" ry="2.5" style="stroke:#181818;stroke-width:0.5;" width="68.7129" x="1193.5" y="509"/><text fill="#000000" font-family="sans-serif" font-size="14" lengthAdjust="spacing" textLength="48.7129" x="1203.5" y="531.9951">dotenv</text></g><!--entity FLASK--><g id="elem_FLASK"><rect fill="#F1F1F1" height="36.2969" rx="2.5" ry="2.5" style="stroke:#181818;stroke-width:0.5;" width="55.9229" x="1298" y="509"/><text fill="#000000" font-family="sans-serif" font-size="14" lengthAdjust="spacing" textLength="35.9229" x="1308" y="531.9951">Flask</text></g><!--entity TIKTOKEN--><g id="elem_TIKTOKEN"><rect fill="#F1F1F1" height="36.2969" rx="2.5" ry="2.5" style="stroke:#181818;stroke-width:0.5;" width="77.1348" x="979.5" y="509"/><text fill="#000000" font-family="sans-serif" font-size="14" lengthAdjust="spacing" textLength="57.1348" x="989.5" y="531.9951">tiktoken</text></g><!--entity CERTIFI--><g id="elem_CERTIFI"><rect fill="#F1F1F1" height="36.2969" rx="2.5" ry="2.5" style="stroke:#181818;stroke-width:0.5;" width="60.2637" x="763" y="509"/><text fill="#000000" font-family="sans-serif" font-size="14" lengthAdjust="spacing" textLength="40.2637" x="773" y="531.9951">certifi</text></g><!--link WSGI to APP--><g id="link_WSGI_APP"><path d="M1012,95.24 C1012,113.18 1012,130.99 1012,148.89 " fill="none" id="WSGI-to-APP" style="stroke:#181818;stroke-width:1;"/><polygon fill="#181818" points="1012,154.89,1016,145.89,1012,149.89,1008,145.89,1012,154.89" style="stroke:#181818;stroke-width:1;"/></g><!--link APP to AIMODEL--><g id="link_APP_AIMODEL"><path d="M1011.54,208.24 C1011.21,226.18 1010.8872,243.991 1010.5672,261.891 " fill="none" id="APP-to-AIMODEL" style="stroke:#181818;stroke-width:1;"/><polygon fill="#181818" points="1010.46,267.89,1014.6202,258.9629,1010.5494,262.8908,1006.6215,258.8199,1010.46,267.89" style="stroke:#181818;stroke-width:1;"/></g><!--link AIMODEL to CONTEXT_UTILS--><g id="link_AIMODEL_CONTEXT_UTILS"><path d="M951.96,300.44 C850.47,309.96 634.71,334.2 458,381 C355.47,408.16 331.74,422.51 235,466 C205.63,479.21 178.4488,493.4913 155.5288,506.0813 " fill="none" id="AIMODEL-to-CONTEXT_UTILS" style="stroke:#181818;stroke-width:1;"/><polygon fill="#181818" points="150.27,508.97,160.0841,508.1429,154.6524,506.5628,156.2325,501.1311,150.27,508.97" style="stroke:#181818;stroke-width:1;"/></g><!--link AIMODEL to TOKEN_UTILS--><g id="link_AIMODEL_TOKEN_UTILS"><path d="M951.73,307.59 C846.14,330.62 617.43,385.77 437,466 C409.79,478.1 385.7854,492.6167 365.8654,505.6967 " fill="none" id="AIMODEL-to-TOKEN_UTILS" style="stroke:#181818;stroke-width:1;"/><polygon fill="#181818" points="360.85,508.99,370.5686,507.3937,365.0295,506.2456,366.1776,500.7065,360.85,508.99" style="stroke:#181818;stroke-width:1;"/></g><!--link AIMODEL to DBSEARCH--><g id="link_AIMODEL_DBSEARCH"><path d="M966.16,321.24 C935.63,339.18 900.2538,359.9516 869.7738,377.8516 " fill="none" id="AIMODEL-to-DBSEARCH" style="stroke:#181818;stroke-width:1;"/><polygon fill="#181818" points="864.6,380.89,874.3863,379.7816,868.9115,378.358,870.3351,372.8832,864.6,380.89" style="stroke:#181818;stroke-width:1;"/></g><!--link AIMODEL to COMPRESSOR--><g id="link_AIMODEL_COMPRESSOR"><path d="M1010,321.24 C1010,339.18 1010,356.99 1010,374.89 " fill="none" id="AIMODEL-to-COMPRESSOR" style="stroke:#181818;stroke-width:1;"/><polygon fill="#181818" points="1010,380.89,1014,371.89,1010,375.89,1006,371.89,1010,380.89" style="stroke:#181818;stroke-width:1;"/></g><!--link DBSEARCH to EMBEDDING--><g id="link_DBSEARCH_EMBEDDING"><path d="M728.33,423.21 C685.99,432.11 636.03,445.76 594,466 C571.04,477.06 552.7023,491.4014 537.5423,504.8914 " fill="none" id="DBSEARCH-to-EMBEDDING" style="stroke:#181818;stroke-width:1;"/><polygon fill="#181818" points="533.06,508.88,542.4425,505.8854,536.7953,505.5562,537.1245,499.9089,533.06,508.88" style="stroke:#181818;stroke-width:1;"/></g><!--link DBSEARCH to DB_UTILS--><g id="link_DBSEARCH_DB_UTILS"><path d="M785.45,434.29 C754.15,456.98 714.3368,485.867 687.3168,505.467 " fill="none" id="DBSEARCH-to-DB_UTILS" style="stroke:#181818;stroke-width:1;"/><polygon fill="#181818" points="682.46,508.99,692.0938,506.9433,686.5073,506.0541,687.3965,500.4676,682.46,508.99" style="stroke:#181818;stroke-width:1;"/></g><!--link COMPRESSOR to PYMONGO--><g id="link_COMPRESSOR_PYMONGO"><path d="M986.08,434.29 C965.02,456.98 939.0403,484.991 920.8603,504.591 " fill="none" id="COMPRESSOR-to-PYMONGO" style="stroke:#181818;stroke-width:1;"/><polygon fill="#181818" points="916.78,508.99,925.8331,505.1117,920.1802,505.3242,919.9678,499.6713,916.78,508.99" style="stroke:#181818;stroke-width:1;"/></g><!--link COMPRESSOR to OPENAI--><g id="link_COMPRESSOR_OPENAI"><path d="M1040.08,434.03 C1051.06,443.73 1063.38,455.08 1074,466 C1087.44,479.82 1097.776,491.9456 1107.736,504.2556 " fill="none" id="COMPRESSOR-to-OPENAI" style="stroke:#181818;stroke-width:1;"/><polygon fill="#181818" points="1111.51,508.92,1108.9586,499.4073,1108.365,505.033,1102.7394,504.4393,1111.51,508.92" style="stroke:#181818;stroke-width:1;"/></g><!--link COMPRESSOR to DOTENV--><g id="link_COMPRESSOR_DOTENV"><path d="M1072.31,421.8 C1105.08,430.76 1144.81,444.89 1176,466 C1192.78,477.36 1203.9659,490.561 1213.4059,503.911 " fill="none" id="COMPRESSOR-to-DOTENV" style="stroke:#181818;stroke-width:1;"/><polygon fill="#181818" points="1216.87,508.81,1214.9398,499.1521,1213.9832,504.7275,1208.4078,503.771,1216.87,508.81" style="stroke:#181818;stroke-width:1;"/></g><!--link COMPRESSOR to TIKTOKEN--><g id="link_COMPRESSOR_TIKTOKEN"><path d="M1011.76,434.29 C1013.3,456.98 1015.1038,483.4038 1016.4338,503.0038 " fill="none" id="COMPRESSOR-to-TIKTOKEN" style="stroke:#181818;stroke-width:1;"/><polygon fill="#181818" points="1016.84,508.99,1020.2215,499.7398,1016.5015,504.0015,1012.2399,500.2815,1016.84,508.99" style="stroke:#181818;stroke-width:1;"/></g><!--link DBSEARCH to CERTIFI--><g id="link_DBSEARCH_CERTIFI"><path d="M814.86,434.29 C809.45,456.98 803.1107,483.5534 798.4407,503.1534 " fill="none" id="DBSEARCH-to-CERTIFI" style="stroke:#181818;stroke-width:1;"/><polygon fill="#181818" points="797.05,508.99,803.0271,501.1622,798.2089,504.1262,795.2449,499.308,797.05,508.99" style="stroke:#181818;stroke-width:1;"/></g><!--link DBSEARCH to PYMONGO--><g id="link_DBSEARCH_PYMONGO"><path d="M838.56,434.29 C854.01,456.98 872.6923,484.431 886.0423,504.031 " fill="none" id="DBSEARCH-to-PYMONGO" style="stroke:#181818;stroke-width:1;"/><polygon fill="#181818" points="889.42,508.99,887.6595,499.2998,886.6053,504.8575,881.0475,503.8033,889.42,508.99" style="stroke:#181818;stroke-width:1;"/></g><!--link AIMODEL to OPENAI--><g id="link_AIMODEL_OPENAI"><path d="M1040.74,321.07 C1057.65,336.72 1077.65,358.1 1090,381 C1112.86,423.4 1120.4014,474.758 1123.1314,502.938 " fill="none" id="AIMODEL-to-OPENAI" style="stroke:#181818;stroke-width:1;"/><polygon fill="#181818" points="1123.71,508.91,1126.8235,499.5662,1123.2279,503.9333,1118.8608,500.3376,1123.71,508.91" style="stroke:#181818;stroke-width:1;"/></g><!--link AIMODEL to DOTENV--><g id="link_AIMODEL_DOTENV"><path d="M1052.31,321.06 C1076.1,336.63 1105.46,357.93 1128,381 C1167.96,421.9 1199.978,475.1796 1215.908,503.7496 " fill="none" id="AIMODEL-to-DOTENV" style="stroke:#181818;stroke-width:1;"/><polygon fill="#181818" points="1218.83,508.99,1217.9407,499.1814,1216.395,504.623,1210.9534,503.0773,1218.83,508.99" style="stroke:#181818;stroke-width:1;"/></g><!--link APP to FLASK--><g id="link_APP_FLASK"><path d="M1038.06,208.24 C1087.08,257.04 1195.66,367.02 1280,466 C1291.92,479.99 1300.9955,491.7935 1310.0055,503.9935 " fill="none" id="APP-to-FLASK" style="stroke:#181818;stroke-width:1;"/><polygon fill="#181818" points="1313.57,508.82,1311.441,499.204,1310.5996,504.798,1305.0057,503.9566,1313.57,508.82" style="stroke:#181818;stroke-width:1;"/></g><!--SRC=[bLDTRvim57tthx3wqgVk5tIH23WPIW8eq7recf037hK06zbkLpJjlmyRJ82qwPOdSkwvbtFFFSYIiWOBNCECrmrdXAbOjHM1WcGAiw8YG8wK1cSbBiYI06u_llO3jz1fcefcM57Ee6ldoxVumtXuupvYTUBg1lu647x_9GlweMb_G2pXbtZhm_lxKUjgfHcuQIp1YQ9NwZIjUKwgaUGVGW_jBudvAPMqfXKMLBMf95XaZxR9MyV8ERgVBhlqNq6avC9otV0G7L4SXyS5-yyLinuKhIICUXFUzUX9imU7CiuKUL5f9u9NpqIafdWM4oJeQv8-9Fu-rdJ5IyBI9zdDcJEJS8U2CwzpOrRsrkSQgKyapoahR14TriZp_61xTKVqeeXWk89xUXATo-JzC5os35itRSrPmStRes-7CDY66kODOPWQD8nGuFXc5Qu8U-wt21CKVDRWfiAoDDXcxyGxOmqjZJkz7VxEE68i9aBHd_rO5nqJV-DVNTGZdOoSiApJ2nqjz3y_1fFqkxkLJZJGgJRFVN01i0dMuFo-qyhqdbFSHdanncOMW37hkd2-x0mUqm0cQTS5Uui5F1nZWGxNMA2Zy_yQf7Pc-5jjC_tsYZFGQfyQCmYV6TYhjcSnyVaB]--></g></svg>