<svg xmlns="http://www.w3.org/2000/svg" xmlns:xlink="http://www.w3.org/1999/xlink" contentStyleType="text/css" height="211px" preserveAspectRatio="none" style="width:1727px;height:211px;background:#FFFFFF;" version="1.1" viewBox="0 0 1727 211" width="1727px" zoomAndPan="magnify"><defs/><g><!--cluster Utilities (/src/utils/)--><g id="cluster_Utilities (/src/utils/)"><rect fill="none" height="87" rx="2.5" ry="2.5" style="stroke:#181818;stroke-width:1;" width="297" x="1136" y="118"/><text fill="#000000" font-family="sans-serif" font-size="14" font-weight="bold" lengthAdjust="spacing" textLength="152.9131" x="1208.0435" y="132.9951">Utilities (/src/utils/)</text></g><!--cluster Parsers (/src/parsers/)--><g id="cluster_Parsers (/src/parsers/)"><rect fill="none" height="87" rx="2.5" ry="2.5" style="stroke:#181818;stroke-width:1;" width="1714" x="7" y="7"/><text fill="#000000" font-family="sans-serif" font-size="14" font-weight="bold" lengthAdjust="spacing" textLength="175.6631" x="776.1685" y="21.9951">Parsers (/src/parsers/)</text></g><!--cluster External Libraries--><g id="cluster_External Libraries"><rect fill="none" height="87" rx="2.5" ry="2.5" style="stroke:#181818;stroke-width:1;" width="240" x="491" y="118"/><text fill="#000000" font-family="sans-serif" font-size="14" font-weight="bold" lengthAdjust="spacing" textLength="140.3965" x="540.8018" y="132.9951">External Libraries</text></g><!--entity LOC_UTILS--><g id="elem_LOC_UTILS"><rect fill="#F1F1F1" height="36.2969" rx="2.5" ry="2.5" style="stroke:#181818;stroke-width:0.5;" width="98.21" x="1319" y="153"/><text fill="#000000" font-family="sans-serif" font-size="14" lengthAdjust="spacing" textLength="78.21" x="1329" y="175.9951">loc_utils.py</text></g><!--entity COUNTRY_UTILS--><g id="elem_COUNTRY_UTILS"><rect fill="#F1F1F1" height="36.2969" rx="2.5" ry="2.5" style="stroke:#181818;stroke-width:0.5;" width="131.5967" x="1152" y="153"/><text fill="#000000" font-family="sans-serif" font-size="14" lengthAdjust="spacing" textLength="111.5967" x="1162" y="175.9951">country_utils.py</text></g><!--entity YEARLY--><g id="elem_YEARLY"><rect fill="#F1F1F1" height="36.2969" rx="2.5" ry="2.5" style="stroke:#181818;stroke-width:0.5;" width="166.9932" x="381.5" y="42"/><text fill="#000000" font-family="sans-serif" font-size="14" lengthAdjust="spacing" textLength="146.9932" x="391.5" y="64.9951">api_yearly_review.py</text></g><!--entity ADDITIONAL--><g id="elem_ADDITIONAL"><rect fill="#F1F1F1" height="36.2969" rx="2.5" ry="2.5" style="stroke:#181818;stroke-width:0.5;" width="238.5791" x="1057.5" y="42"/><text fill="#000000" font-family="sans-serif" font-size="14" lengthAdjust="spacing" textLength="218.5791" x="1067.5" y="64.9951">api_country_additional_data.py</text></g><!--entity CONFLICT--><g id="elem_CONFLICT"><rect fill="#F1F1F1" height="36.2969" rx="2.5" ry="2.5" style="stroke:#181818;stroke-width:0.5;" width="181.5469" x="1523" y="42"/><text fill="#000000" font-family="sans-serif" font-size="14" lengthAdjust="spacing" textLength="161.5469" x="1533" y="64.9951">api_country_conflict.py</text></g><!--entity GENERAL--><g id="elem_GENERAL"><rect fill="#F1F1F1" height="36.2969" rx="2.5" ry="2.5" style="stroke:#181818;stroke-width:0.5;" width="222.2617" x="800" y="42"/><text fill="#000000" font-family="sans-serif" font-size="14" lengthAdjust="spacing" textLength="202.2617" x="810" y="64.9951">api_country_general_data.py</text></g><!--entity IPC--><g id="elem_IPC"><rect fill="#F1F1F1" height="36.2969" rx="2.5" ry="2.5" style="stroke:#181818;stroke-width:0.5;" width="150.9902" x="195.5" y="42"/><text fill="#000000" font-family="sans-serif" font-size="14" lengthAdjust="spacing" textLength="130.9902" x="205.5" y="64.9951">api_country_ipc.py</text></g><!--entity PDC--><g id="elem_PDC"><rect fill="#F1F1F1" height="36.2969" rx="2.5" ry="2.5" style="stroke:#181818;stroke-width:0.5;" width="155.9873" x="1332" y="42"/><text fill="#000000" font-family="sans-serif" font-size="14" lengthAdjust="spacing" textLength="135.9873" x="1342" y="64.9951">api_country_pdc.py</text></g><!--entity REPORTS--><g id="elem_REPORTS"><rect fill="#F1F1F1" height="36.2969" rx="2.5" ry="2.5" style="stroke:#181818;stroke-width:0.5;" width="180.877" x="583.5" y="42"/><text fill="#000000" font-family="sans-serif" font-size="14" lengthAdjust="spacing" textLength="160.877" x="593.5" y="64.9951">api_country_reports.py</text></g><!--entity ISO3--><g id="elem_ISO3"><rect fill="#F1F1F1" height="36.2969" rx="2.5" ry="2.5" style="stroke:#181818;stroke-width:0.5;" width="137.168" x="23.5" y="42"/><text fill="#000000" font-family="sans-serif" font-size="14" lengthAdjust="spacing" textLength="117.168" x="33.5" y="64.9951">api_iso3_data.py</text></g><!--entity PYCOUNTRY--><g id="elem_PYCOUNTRY"><rect fill="#F1F1F1" height="36.2969" rx="2.5" ry="2.5" style="stroke:#181818;stroke-width:0.5;" width="90.7109" x="507.5" y="153"/><text fill="#000000" font-family="sans-serif" font-size="14" lengthAdjust="spacing" textLength="70.7109" x="517.5" y="175.9951">pycountry</text></g><!--entity REQUESTS--><g id="elem_REQUESTS"><rect fill="#F1F1F1" height="36.2969" rx="2.5" ry="2.5" style="stroke:#181818;stroke-width:0.5;" width="80.8193" x="633.5" y="153"/><text fill="#000000" font-family="sans-serif" font-size="14" lengthAdjust="spacing" textLength="60.8193" x="643.5" y="175.9951">requests</text></g><!--link ADDITIONAL to REQUESTS--><g id="link_ADDITIONAL_REQUESTS"><path d="M1124.66,78.1 C1099.28,86.02 1068.23,95.17 1040,102 C923,130.29 788.4495,152.4927 720.5795,162.9927 " fill="none" id="ADDITIONAL-to-REQUESTS" style="stroke:#181818;stroke-width:1;"/><polygon fill="#181818" points="714.65,163.91,724.1557,166.487,719.5912,163.1456,722.9326,158.581,714.65,163.91" style="stroke:#181818;stroke-width:1;"/></g><!--link ADDITIONAL to COUNTRY_UTILS--><g id="link_ADDITIONAL_COUNTRY_UTILS"><path d="M1183.41,78.03 C1191.06,98.39 1201.699,126.6536 1209.389,147.1136 " fill="none" id="ADDITIONAL-to-COUNTRY_UTILS" style="stroke:#181818;stroke-width:1;"/><polygon fill="#181818" points="1211.5,152.73,1212.0778,142.8981,1209.7409,148.0497,1204.5893,145.7127,1211.5,152.73" style="stroke:#181818;stroke-width:1;"/></g><!--link CONFLICT to REQUESTS--><g id="link_CONFLICT_REQUESTS"><path d="M1578.41,78.03 C1557.78,87.01 1531,97.13 1506,102 C1425.27,117.71 1218.01,103.81 1136,110 C979.53,121.82 800.8122,149.2169 720.5622,162.2669 " fill="none" id="CONFLICT-to-REQUESTS" style="stroke:#181818;stroke-width:1;"/><polygon fill="#181818" points="714.64,163.23,724.1653,165.7336,719.5752,162.4275,722.8813,157.8373,714.64,163.23" style="stroke:#181818;stroke-width:1;"/></g><!--link CONFLICT to LOC_UTILS--><g id="link_CONFLICT_LOC_UTILS"><path d="M1575.56,78.03 C1529.48,98.45 1458.1954,130.0288 1412.0554,150.4788 " fill="none" id="CONFLICT-to-LOC_UTILS" style="stroke:#181818;stroke-width:1;"/><polygon fill="#181818" points="1406.57,152.91,1416.4189,152.9201,1411.1411,150.884,1413.1772,145.6063,1406.57,152.91" style="stroke:#181818;stroke-width:1;"/></g><!--link GENERAL to REQUESTS--><g id="link_GENERAL_REQUESTS"><path d="M873.97,78.03 C829.57,98.45 761.0608,129.9523 716.6108,150.4023 " fill="none" id="GENERAL-to-REQUESTS" style="stroke:#181818;stroke-width:1;"/><polygon fill="#181818" points="711.16,152.91,721.008,152.7823,715.7023,150.8202,717.6644,145.5145,711.16,152.91" style="stroke:#181818;stroke-width:1;"/></g><!--link GENERAL to COUNTRY_UTILS--><g id="link_GENERAL_COUNTRY_UTILS"><path d="M958.97,78.03 C1016.56,98.48 1106.9059,130.5522 1164.4659,150.9922 " fill="none" id="GENERAL-to-COUNTRY_UTILS" style="stroke:#181818;stroke-width:1;"/><polygon fill="#181818" points="1170.12,153,1162.9774,146.2189,1165.4083,151.3268,1160.3003,153.7577,1170.12,153" style="stroke:#181818;stroke-width:1;"/></g><!--link IPC to REQUESTS--><g id="link_IPC_REQUESTS"><path d="M301.82,78.17 C319.45,87.06 342.32,97.07 364,102 C391.32,108.21 590.39,98.65 616,110 C636.13,118.92 649.3309,133.5116 659.5509,147.8716 " fill="none" id="IPC-to-REQUESTS" style="stroke:#181818;stroke-width:1;"/><polygon fill="#181818" points="663.03,152.76,661.0703,143.1081,660.1308,148.6864,654.5525,147.7468,663.03,152.76" style="stroke:#181818;stroke-width:1;"/></g><!--link PDC to REQUESTS--><g id="link_PDC_REQUESTS"><path d="M1378.1,78.05 C1359.87,86.91 1336.26,96.92 1314,102 C1275.4,110.81 1175.45,106.56 1136,110 C979.68,123.64 800.8987,150.138 720.5887,162.628 " fill="none" id="PDC-to-REQUESTS" style="stroke:#181818;stroke-width:1;"/><polygon fill="#181818" points="714.66,163.55,724.1678,166.1194,719.6006,162.7816,722.9384,158.2144,714.66,163.55" style="stroke:#181818;stroke-width:1;"/></g><!--link PDC to LOC_UTILS--><g id="link_PDC_LOC_UTILS"><path d="M1403.44,78.03 C1395.59,98.39 1384.6964,126.6709 1376.8164,147.1309 " fill="none" id="PDC-to-LOC_UTILS" style="stroke:#181818;stroke-width:1;"/><polygon fill="#181818" points="1374.66,152.73,1381.6274,145.769,1376.457,148.0641,1374.1619,142.8937,1374.66,152.73" style="stroke:#181818;stroke-width:1;"/></g><!--link REPORTS to REQUESTS--><g id="link_REPORTS_REQUESTS"><path d="M674,78.03 C674,98.39 674,126.27 674,146.73 " fill="none" id="REPORTS-to-REQUESTS" style="stroke:#181818;stroke-width:1;"/><polygon fill="#181818" points="674,152.73,678,143.73,674,147.73,670,143.73,674,152.73" style="stroke:#181818;stroke-width:1;"/></g><!--link ISO3 to PYCOUNTRY--><g id="link_ISO3_PYCOUNTRY"><path d="M122.63,78.05 C138.7,86.36 158.95,95.85 178,102 C293.39,139.23 429.7641,157.3717 501.3541,165.0317 " fill="none" id="ISO3-to-PYCOUNTRY" style="stroke:#181818;stroke-width:1;"/><polygon fill="#181818" points="507.32,165.67,498.7966,160.7352,502.3484,165.138,497.9455,168.6898,507.32,165.67" style="stroke:#181818;stroke-width:1;"/></g><!--link ISO3 to REQUESTS--><g id="link_ISO3_REQUESTS"><path d="M119.93,78.07 C136.23,87.05 157.55,97.18 178,102 C201.69,107.59 593.68,100.29 616,110 C636.33,118.84 649.6074,133.65 659.7974,148.07 " fill="none" id="ISO3-to-REQUESTS" style="stroke:#181818;stroke-width:1;"/><polygon fill="#181818" points="663.26,152.97,661.3327,143.3116,660.3745,148.8867,654.7994,147.9284,663.26,152.97" style="stroke:#181818;stroke-width:1;"/></g><!--link YEARLY to REQUESTS--><g id="link_YEARLY_REQUESTS"><path d="M501.24,78.05 C520.17,86.35 543.94,95.85 566,102 C587.68,108.05 596.04,99.6 616,110 C635.27,120.04 648.2667,134.1225 658.7067,148.0225 " fill="none" id="YEARLY-to-REQUESTS" style="stroke:#181818;stroke-width:1;"/><polygon fill="#181818" points="662.31,152.82,660.1034,143.2215,659.3072,148.8221,653.7067,148.0259,662.31,152.82" style="stroke:#181818;stroke-width:1;"/></g><!--SRC=[ZP9VJuCm5CNV-HJDNjI7kOSzQx8mD2G4a3yFn1XIIrsQiRQsdKgCtrqOBLWsfxnnxkzU3lTSkIMKGm5t0B4TPnHJbQgcna1Wf23TrDYH0y8Xsi8DdWBEnSsfnxa0kIAr177VzXkcfu9PHnD5i0IN2odGOjzrBwvcuDC1uB5cg3merxnv0b2287BBFFE3jAiYjgTAD3RXHdcO9OMcliuOZQ6GMFpVgk5xexn_6wn2Jie6Gr4tfS1l1ByRGuMtIeB28COphAhsjnc5TLb11GsyMg_zp8_2LJ1jG8o-r0IfyJ_3ky1tioctmHIBoTHxB_IIuv648qFuiJkjycgenkkZgi2S2JLiFV7YACbIGn79bfO3FusMRV5i7jw7mg9T20Z8iu2YlOa_8pbkqMdmHXlj_HVwAhgImAzxB9NKlXzoByqEXpBk7ipdjsDfeji7PcAmMonrl5cTWyt-5EtPRIWsskPmMXW_eOEmiMxx1sLSn20DK7-dblOD]--></g></svg>