<svg xmlns="http://www.w3.org/2000/svg" xmlns:xlink="http://www.w3.org/1999/xlink" contentStyleType="text/css" height="458px" preserveAspectRatio="none" style="width:4115px;height:458px;background:#FFFFFF;" version="1.1" viewBox="0 0 4115 458" width="4115px" zoomAndPan="magnify"><defs/><g><!--cluster Utilities (/src/utils/)--><g id="cluster_Utilities (/src/utils/)"><rect fill="none" height="216" rx="2.5" ry="2.5" style="stroke:#181818;stroke-width:1;" width="565" x="2315" y="236"/><text fill="#000000" font-family="sans-serif" font-size="14" font-weight="bold" lengthAdjust="spacing" textLength="152.9131" x="2521.0435" y="250.9951">Utilities (/src/utils/)</text></g><!--cluster Database Preparation--><g id="cluster_Database Preparation"><rect fill="none" height="87" rx="2.5" ry="2.5" style="stroke:#181818;stroke-width:1;" width="188" x="2103" y="236"/><text fill="#000000" font-family="sans-serif" font-size="14" font-weight="bold" lengthAdjust="spacing" textLength="172.9355" x="2110.5322" y="250.9951">Database Preparation</text></g><!--cluster Data Uploaders (/src/data_uploaders/)--><g id="cluster_Data Uploaders (/src/data_uploaders/)"><rect fill="none" height="205" rx="2.5" ry="2.5" style="stroke:#181818;stroke-width:1;" width="3833" x="276" y="7"/><text fill="#000000" font-family="sans-serif" font-size="14" font-weight="bold" lengthAdjust="spacing" textLength="299.8516" x="2042.5742" y="21.9951">Data Uploaders (/src/data_uploaders/)</text></g><!--cluster External Libraries--><g id="cluster_External Libraries"><rect fill="none" height="220" rx="2.5" ry="2.5" style="stroke:#181818;stroke-width:1;" width="245" x="7" y="114"/><text fill="#000000" font-family="sans-serif" font-size="14" font-weight="bold" lengthAdjust="spacing" textLength="140.3965" x="59.3018" y="128.9951">External Libraries</text></g><!--entity I_Utils--><g id="elem_I_Utils"><ellipse cx="2446" cy="407" fill="#F1F1F1" rx="8" ry="8" style="stroke:#181818;stroke-width:0.5;"/><text fill="#000000" font-family="sans-serif" font-size="14" lengthAdjust="spacing" textLength="41.9385" x="2425.0308" y="436.9951">I_Utils</text></g><!--entity LOC_UTILS--><g id="elem_LOC_UTILS"><rect fill="#F1F1F1" height="36.2969" rx="2.5" ry="2.5" style="stroke:#181818;stroke-width:0.5;" width="98.21" x="2766" y="271"/><text fill="#000000" font-family="sans-serif" font-size="14" lengthAdjust="spacing" textLength="78.21" x="2776" y="293.9951">loc_utils.py</text></g><!--entity COUNTRY_UTILS--><g id="elem_COUNTRY_UTILS"><rect fill="#F1F1F1" height="36.2969" rx="2.5" ry="2.5" style="stroke:#181818;stroke-width:0.5;" width="131.5967" x="2599" y="271"/><text fill="#000000" font-family="sans-serif" font-size="14" lengthAdjust="spacing" textLength="111.5967" x="2609" y="293.9951">country_utils.py</text></g><!--entity CSV--><g id="elem_CSV"><rect fill="#F1F1F1" height="36.2969" rx="2.5" ry="2.5" style="stroke:#181818;stroke-width:0.5;" width="101.334" x="2462.5" y="271"/><text fill="#000000" font-family="sans-serif" font-size="14" lengthAdjust="spacing" textLength="81.334" x="2472.5" y="293.9951">csv_utils.py</text></g><!--entity DB--><g id="elem_DB"><rect fill="#F1F1F1" height="36.2969" rx="2.5" ry="2.5" style="stroke:#181818;stroke-width:0.5;" width="95.8311" x="2331" y="271"/><text fill="#000000" font-family="sans-serif" font-size="14" lengthAdjust="spacing" textLength="75.8311" x="2341" y="293.9951">db_utils.py</text></g><!--entity VECTOR--><g id="elem_VECTOR"><rect fill="#F1F1F1" height="36.2969" rx="2.5" ry="2.5" style="stroke:#181818;stroke-width:0.5;" width="143.6895" x="2122" y="271"/><text fill="#000000" font-family="sans-serif" font-size="14" lengthAdjust="spacing" textLength="123.6895" x="2132" y="293.9951">db_vectorizing.py</text></g><!--entity I_DataUploader--><g id="elem_I_DataUploader"><ellipse cx="2132" cy="167" fill="#F1F1F1" rx="8" ry="8" style="stroke:#181818;stroke-width:0.5;"/><text fill="#000000" font-family="sans-serif" font-size="14" lengthAdjust="spacing" textLength="107.9805" x="2078.0098" y="196.9951">I_DataUploader</text></g><!--entity ADDITIONAL--><g id="elem_ADDITIONAL"><rect fill="#F1F1F1" height="36.2969" rx="2.5" ry="2.5" style="stroke:#181818;stroke-width:0.5;" width="289.6777" x="3522" y="42"/><text fill="#000000" font-family="sans-serif" font-size="14" lengthAdjust="spacing" textLength="269.6777" x="3532" y="64.9951">db_upload_country_additional_data.py</text></g><!--entity COUNTRY_REGION--><g id="elem_COUNTRY_REGION"><rect fill="#F1F1F1" height="36.2969" rx="2.5" ry="2.5" style="stroke:#181818;stroke-width:0.5;" width="298.0723" x="3189" y="42"/><text fill="#000000" font-family="sans-serif" font-size="14" lengthAdjust="spacing" textLength="278.0723" x="3199" y="64.9951">db_upload_country_and_region_data.py</text></g><!--entity CONFLICT--><g id="elem_CONFLICT"><rect fill="#F1F1F1" height="36.2969" rx="2.5" ry="2.5" style="stroke:#181818;stroke-width:0.5;" width="271.1797" x="2882.5" y="42"/><text fill="#000000" font-family="sans-serif" font-size="14" lengthAdjust="spacing" textLength="251.1797" x="2892.5" y="64.9951">db_upload_country_conflict_data.py</text></g><!--entity ECON--><g id="elem_ECON"><rect fill="#F1F1F1" height="36.2969" rx="2.5" ry="2.5" style="stroke:#181818;stroke-width:0.5;" width="284.3867" x="2563" y="42"/><text fill="#000000" font-family="sans-serif" font-size="14" lengthAdjust="spacing" textLength="264.3867" x="2573" y="64.9951">db_upload_country_economy_data.py</text></g><!--entity FCS--><g id="elem_FCS"><rect fill="#F1F1F1" height="36.2969" rx="2.5" ry="2.5" style="stroke:#181818;stroke-width:0.5;" width="240.0693" x="2288" y="42"/><text fill="#000000" font-family="sans-serif" font-size="14" lengthAdjust="spacing" textLength="220.0693" x="2298" y="64.9951">db_upload_country_fcs_data.py</text></g><!--entity IPC--><g id="elem_IPC"><rect fill="#F1F1F1" height="36.2969" rx="2.5" ry="2.5" style="stroke:#181818;stroke-width:0.5;" width="240.623" x="2011.5" y="42"/><text fill="#000000" font-family="sans-serif" font-size="14" lengthAdjust="spacing" textLength="220.623" x="2021.5" y="64.9951">db_upload_country_ipc_data.py</text></g><!--entity NEWS--><g id="elem_NEWS"><rect fill="#F1F1F1" height="36.2969" rx="2.5" ry="2.5" style="stroke:#181818;stroke-width:0.5;" width="217.8457" x="1758" y="42"/><text fill="#000000" font-family="sans-serif" font-size="14" lengthAdjust="spacing" textLength="197.8457" x="1768" y="64.9951">db_upload_country_news.py</text></g><!--entity NUTRITION--><g id="elem_NUTRITION"><rect fill="#F1F1F1" height="36.2969" rx="2.5" ry="2.5" style="stroke:#181818;stroke-width:0.5;" width="279.8477" x="1443" y="42"/><text fill="#000000" font-family="sans-serif" font-size="14" lengthAdjust="spacing" textLength="259.8477" x="1453" y="64.9951">db_upload_country_nutrition_data.py</text></g><!--entity PDC--><g id="elem_PDC"><rect fill="#F1F1F1" height="36.2969" rx="2.5" ry="2.5" style="stroke:#181818;stroke-width:0.5;" width="245.6201" x="3847" y="42"/><text fill="#000000" font-family="sans-serif" font-size="14" lengthAdjust="spacing" textLength="225.6201" x="3857" y="64.9951">db_upload_country_pdc_data.py</text></g><!--entity POPU--><g id="elem_POPU"><rect fill="#F1F1F1" height="36.2969" rx="2.5" ry="2.5" style="stroke:#181818;stroke-width:0.5;" width="294.6475" x="1112.5" y="42"/><text fill="#000000" font-family="sans-serif" font-size="14" lengthAdjust="spacing" textLength="274.6475" x="1122.5" y="64.9951">db_upload_country_population_data.py</text></g><!--entity RCSI--><g id="elem_RCSI"><rect fill="#F1F1F1" height="36.2969" rx="2.5" ry="2.5" style="stroke:#181818;stroke-width:0.5;" width="244.7861" x="832.5" y="42"/><text fill="#000000" font-family="sans-serif" font-size="14" lengthAdjust="spacing" textLength="224.7861" x="842.5" y="64.9951">db_upload_country_rcsi_data.py</text></g><!--entity REPORTS--><g id="elem_REPORTS"><rect fill="#F1F1F1" height="36.2969" rx="2.5" ry="2.5" style="stroke:#181818;stroke-width:0.5;" width="209.9707" x="587" y="42"/><text fill="#000000" font-family="sans-serif" font-size="14" lengthAdjust="spacing" textLength="189.9707" x="597" y="64.9951">db_upload_reports_data.py</text></g><!--entity YEARLY--><g id="elem_YEARLY"><rect fill="#F1F1F1" height="36.2969" rx="2.5" ry="2.5" style="stroke:#181818;stroke-width:0.5;" width="260.3789" x="292" y="42"/><text fill="#000000" font-family="sans-serif" font-size="14" lengthAdjust="spacing" textLength="240.3789" x="302" y="64.9951">db_upload_yearly_reports_data.py</text></g><!--entity I_ExternalLibs--><g id="elem_I_ExternalLibs"><ellipse cx="180" cy="289" fill="#F1F1F1" rx="8" ry="8" style="stroke:#181818;stroke-width:0.5;"/><text fill="#000000" font-family="sans-serif" font-size="14" lengthAdjust="spacing" textLength="97.3301" x="131.335" y="318.9951">I_ExternalLibs</text></g><!--entity PYMONGO--><g id="elem_PYMONGO"><rect fill="#F1F1F1" height="36.2969" rx="2.5" ry="2.5" style="stroke:#181818;stroke-width:0.5;" width="85.7002" x="150" y="149"/><text fill="#000000" font-family="sans-serif" font-size="14" lengthAdjust="spacing" textLength="65.7002" x="160" y="171.9951">pymongo</text></g><!--entity PYCOUNTRY--><g id="elem_PYCOUNTRY"><rect fill="#F1F1F1" height="36.2969" rx="2.5" ry="2.5" style="stroke:#181818;stroke-width:0.5;" width="90.7109" x="23.5" y="149"/><text fill="#000000" font-family="sans-serif" font-size="14" lengthAdjust="spacing" textLength="70.7109" x="33.5" y="171.9951">pycountry</text></g><!--link COUNTRY_UTILS to I_Utils--><g id="link_COUNTRY_UTILS_I_Utils"><path d="M2638.96,307.16 C2622.6,317.69 2600.88,331.18 2581,342 C2534.75,367.17 2493.4862,385.5367 2471.5462,395.0067 " fill="none" id="COUNTRY_UTILS-to-I_Utils" style="stroke:#181818;stroke-width:1;"/><polygon fill="none" points="2455.02,402.14,2473.924,400.5155,2469.1685,389.498,2455.02,402.14" style="stroke:#181818;stroke-width:1;"/></g><!--link CSV to I_Utils--><g id="link_CSV_I_Utils"><path d="M2503.11,307.12 C2488.48,332.45 2470.6227,363.3731 2459.7527,382.1931 " fill="none" id="CSV-to-I_Utils" style="stroke:#181818;stroke-width:1;"/><polygon fill="none" points="2450.75,397.78,2464.9483,385.194,2454.557,379.1922,2450.75,397.78" style="stroke:#181818;stroke-width:1;"/></g><!--link DB to I_Utils--><g id="link_DB_I_Utils"><path d="M2388.89,307.12 C2403.52,332.45 2421.3773,363.3731 2432.2473,382.1931 " fill="none" id="DB-to-I_Utils" style="stroke:#181818;stroke-width:1;"/><polygon fill="none" points="2441.25,397.78,2437.443,379.1922,2427.0517,385.194,2441.25,397.78" style="stroke:#181818;stroke-width:1;"/></g><!--link ADDITIONAL to I_DataUploader--><g id="link_ADDITIONAL_I_DataUploader"><path d="M3521.75,76.53 C3516.09,77.04 3510.49,77.54 3505,78 C2934.97,126.16 2247.7786,160.3527 2159.2486,164.6727 " fill="none" id="ADDITIONAL-to-I_DataUploader" style="stroke:#181818;stroke-width:1;"/><polygon fill="none" points="2141.27,165.55,2159.541,170.6656,2158.9562,158.6798,2141.27,165.55" style="stroke:#181818;stroke-width:1;"/></g><!--link COUNTRY_REGION to I_DataUploader--><g id="link_COUNTRY_REGION_I_DataUploader"><path d="M3188.69,76.33 C3182.72,76.9 3176.8,77.46 3171,78 C2743.82,117.83 2235.0348,157.922 2159.2048,163.872 " fill="none" id="COUNTRY_REGION-to-I_DataUploader" style="stroke:#181818;stroke-width:1;"/><polygon fill="none" points="2141.26,165.28,2159.6742,169.8536,2158.7355,157.8903,2141.26,165.28" style="stroke:#181818;stroke-width:1;"/></g><!--link CONFLICT to I_DataUploader--><g id="link_CONFLICT_I_DataUploader"><path d="M2882.47,77.06 C2654.15,104.12 2228.685,154.5419 2159.145,162.7819 " fill="none" id="CONFLICT-to-I_DataUploader" style="stroke:#181818;stroke-width:1;"/><polygon fill="none" points="2141.27,164.9,2159.851,168.7403,2158.4389,156.8236,2141.27,164.9" style="stroke:#181818;stroke-width:1;"/></g><!--link ECON to I_DataUploader--><g id="link_ECON_I_DataUploader"><path d="M2611.98,78.05 C2466.19,104.76 2212.6352,151.2256 2159.0452,161.0456 " fill="none" id="ECON-to-I_DataUploader" style="stroke:#181818;stroke-width:1;"/><polygon fill="none" points="2141.34,164.29,2160.1267,166.9474,2157.9637,155.1439,2141.34,164.29" style="stroke:#181818;stroke-width:1;"/></g><!--link FCS to I_DataUploader--><g id="link_FCS_I_DataUploader"><path d="M2363.04,78.1 C2296.44,103.44 2192.5529,142.9578 2158.1829,156.0378 " fill="none" id="FCS-to-I_DataUploader" style="stroke:#181818;stroke-width:1;"/><polygon fill="none" points="2141.36,162.44,2160.317,161.6454,2156.0489,150.4301,2141.36,162.44" style="stroke:#181818;stroke-width:1;"/></g><!--link IPC to I_DataUploader--><g id="link_IPC_I_DataUploader"><path d="M2132,78.34 C2132,101.29 2132,122.83 2132,139.83 " fill="none" id="IPC-to-I_DataUploader" style="stroke:#181818;stroke-width:1;"/><polygon fill="none" points="2132,157.83,2138,139.83,2126,139.83,2132,157.83" style="stroke:#181818;stroke-width:1;"/></g><!--link NEWS to I_DataUploader--><g id="link_NEWS_I_DataUploader"><path d="M1910.17,78.1 C1973.82,103.32 2072.2162,142.3082 2105.8262,155.6282 " fill="none" id="NEWS-to-I_DataUploader" style="stroke:#181818;stroke-width:1;"/><polygon fill="none" points="2122.56,162.26,2108.0368,150.0503,2103.6156,161.2062,2122.56,162.26" style="stroke:#181818;stroke-width:1;"/></g><!--link NUTRITION to I_DataUploader--><g id="link_NUTRITION_I_DataUploader"><path d="M1672.12,78.05 C1811.5,104.7 2052.8902,150.87 2105.0402,160.84 " fill="none" id="NUTRITION-to-I_DataUploader" style="stroke:#181818;stroke-width:1;"/><polygon fill="none" points="2122.72,164.22,2106.1669,154.9467,2103.9135,166.7333,2122.72,164.22" style="stroke:#181818;stroke-width:1;"/></g><!--link PDC to I_DataUploader--><g id="link_PDC_I_DataUploader"><path d="M3846.75,76.44 C3841.09,77 3835.49,77.53 3830,78 C3650.42,93.54 2285.7896,158.6732 2159.2496,164.7032 " fill="none" id="PDC-to-I_DataUploader" style="stroke:#181818;stroke-width:1;"/><polygon fill="none" points="2141.27,165.56,2159.5352,170.6964,2158.964,158.71,2141.27,165.56" style="stroke:#181818;stroke-width:1;"/></g><!--link POPU to I_DataUploader--><g id="link_POPU_I_DataUploader"><path d="M1401.56,78.05 C1628.24,105.34 2036.399,154.4888 2104.769,162.7188 " fill="none" id="POPU-to-I_DataUploader" style="stroke:#181818;stroke-width:1;"/><polygon fill="none" points="2122.64,164.87,2105.4861,156.7618,2104.0519,168.6758,2122.64,164.87" style="stroke:#181818;stroke-width:1;"/></g><!--link RCSI to I_DataUploader--><g id="link_RCSI_I_DataUploader"><path d="M1077.51,76.14 C1083.42,76.78 1089.28,77.41 1095,78 C1520.96,121.92 2029.0556,158.6599 2104.7956,164.0599 " fill="none" id="RCSI-to-I_DataUploader" style="stroke:#181818;stroke-width:1;"/><polygon fill="none" points="2122.75,165.34,2105.2223,158.0751,2104.3689,170.0447,2122.75,165.34" style="stroke:#181818;stroke-width:1;"/></g><!--link REPORTS to I_DataUploader--><g id="link_REPORTS_I_DataUploader"><path d="M797.28,76.05 C803.27,76.75 809.21,77.41 815,78 C1360.4,133.84 2018.6846,161.4457 2104.8446,164.9157 " fill="none" id="REPORTS-to-I_DataUploader" style="stroke:#181818;stroke-width:1;"/><polygon fill="none" points="2122.83,165.64,2105.086,158.9205,2104.6031,170.9108,2122.83,165.64" style="stroke:#181818;stroke-width:1;"/></g><!--link YEARLY to I_DataUploader--><g id="link_YEARLY_I_DataUploader"><path d="M552.3,76.39 C558.28,76.96 564.2,77.5 570,78 C1221.52,133.72 2011.0806,161.8531 2104.9806,165.0731 " fill="none" id="YEARLY-to-I_DataUploader" style="stroke:#181818;stroke-width:1;"/><polygon fill="none" points="2122.97,165.69,2105.1862,159.0766,2104.7749,171.0696,2122.97,165.69" style="stroke:#181818;stroke-width:1;"/></g><!--link PYMONGO to I_ExternalLibs--><g id="link_PYMONGO_I_ExternalLibs"><path d="M191.14,185.19 C188.29,211.5 184.8827,242.8341 182.8027,262.0941 " fill="none" id="PYMONGO-to-I_ExternalLibs" style="stroke:#181818;stroke-width:1;"/><polygon fill="none" points="180.87,279.99,188.768,262.7383,176.8374,261.4498,180.87,279.99" style="stroke:#181818;stroke-width:1;"/></g><!--link PYCOUNTRY to I_ExternalLibs--><g id="link_PYCOUNTRY_I_ExternalLibs"><path d="M84.9,185.19 C109.24,211.5 142.5593,247.5143 160.3693,266.7743 " fill="none" id="PYCOUNTRY-to-I_ExternalLibs" style="stroke:#181818;stroke-width:1;"/><polygon fill="none" points="172.59,279.99,164.7745,262.7008,155.9641,270.8479,172.59,279.99" style="stroke:#181818;stroke-width:1;"/></g><!--link I_DataUploader to VECTOR--><g id="link_I_DataUploader_VECTOR"><path d="M2136.26,176.25 C2146.27,195.63 2168.7255,239.0797 2182.2855,265.3197 " fill="none" id="I_DataUploader-to-VECTOR" style="stroke:#181818;stroke-width:1;"/><polygon fill="#181818" points="2185.04,270.65,2184.4617,260.8181,2182.7445,266.2081,2177.3546,264.4909,2185.04,270.65" style="stroke:#181818;stroke-width:1;"/></g><!--link I_DataUploader to I_Utils--><g id="link_I_DataUploader_I_Utils"><path d="M2126.99,176.07 C2110.91,203.08 2064.08,291.45 2106,342 C2149.9,394.94 2381.3224,404.2107 2430.9224,405.6107 " fill="none" id="I_DataUploader-to-I_Utils" style="stroke:#181818;stroke-width:1;"/><polygon fill="#181818" points="2436.92,405.78,2428.0364,401.5277,2431.922,405.6389,2427.8107,409.5245,2436.92,405.78" style="stroke:#181818;stroke-width:1;"/></g><!--link I_DataUploader to I_ExternalLibs--><g id="link_I_DataUploader_I_ExternalLibs"><path d="M2122.86,168.56 C1984.87,177.05 334.1387,278.5218 195.2487,287.0618 " fill="none" id="I_DataUploader-to-I_ExternalLibs" style="stroke:#181818;stroke-width:1;"/><polygon fill="#181818" points="189.26,287.43,198.4885,290.8701,194.2506,287.1231,197.9975,282.8852,189.26,287.43" style="stroke:#181818;stroke-width:1;"/></g><!--link I_DataUploader to DB--><g id="link_I_DataUploader_DB"><path d="M2141.03,170.99 C2164.72,178.98 2230.41,201.98 2282,228 C2307.46,240.84 2329.9725,254.8996 2349.1625,267.6496 " fill="none" id="I_DataUploader-to-DB" style="stroke:#181818;stroke-width:1;"/><polygon fill="#181818" points="2354.16,270.97,2348.8773,262.6578,2349.9954,268.203,2344.4502,269.3211,2354.16,270.97" style="stroke:#181818;stroke-width:1;"/></g><!--link PDC to LOC_UTILS--><g id="link_PDC_LOC_UTILS"><path d="M3883.19,78.06 C3654.71,122.97 3047.9674,242.2128 2869.9974,277.1928 " fill="none" id="PDC-to-LOC_UTILS" style="stroke:#181818;stroke-width:1;"/><polygon fill="#181818" points="2864.11,278.35,2873.7125,280.5392,2869.0161,277.3857,2872.1696,272.6894,2864.11,278.35" style="stroke:#181818;stroke-width:1;"/></g><!--SRC=[ZLNRZfim47tdAwnzsVPXcozef2nXLqWK49Ujegf2Zd4YQucDZBCjlVnxRS39cjX9yvOvvmpZEUDnzqfe2pay0CGEBQEOYbpq3GOS8m7fli5UTwAq4Bt2FPuJlFlFjfzt3qf16Y88xa0wIbtKAJEuEoi-B3gE5aVvlrjyl0E_FG085PZl8C8Wh1Inax5l3KFLmFhKzjy1x42K-5LPX56kKCIELF3UPFX96HVPvXshUvinyXS0559lJM3zwCcmaG0yFFnPlgj8QMUXzQCP-NkbPsieu1Ps6AGSgxOBmkZDjjb4Oy_K2TwaLOoJNuJkzJbU0hz8ifk5WB9j6Amnx_whX3Dzig-MmUgeWpOVbKohTCE7lvMs3jOrKUU1JQNIwHEirkkm29Du5JbajAuutakX8TFMPS6p5DkbYD5TGv2O2UEdAFGBkmHB3JlqXYBmNH_OeSvWFlcvdKXQP133rBSJAVvncj4u-Ef8Hu-23xqqaiPbaGsjj8lQsgmXNJjgQ5bxRE15-ZH9Ixk0euuOrCpFm_Ez6yboe1aNPh-o84so8fzJUmnvqriLcs2LHHjrTyzpe-_aR0JD2N6IncbmmCfw1oIzTY3IN0UY77L1sZm7Bjro8T8N1pJuu82crjlHiSrMyDgg2NxAXI0lE8Z8baCkr__DTNCfkTmjcYCfmrFHzWT6zsoSoisN97vEnl0qa1Cm3O0tZDV4qqUQfJoHhVZLxOfRJ6jCqPN3cXsKdrZglMr1zDjYXOooB0prh8sJiZo_d_y0]--></g></svg>