<svg xmlns="http://www.w3.org/2000/svg" xmlns:xlink="http://www.w3.org/1999/xlink" contentStyleType="text/css" height="307px" preserveAspectRatio="none" style="width:1147px;height:307px;background:#FFFFFF;" version="1.1" viewBox="0 0 1147 307" width="1147px" zoomAndPan="magnify"><defs/><g><!--cluster utils--><g id="cluster_utils"><rect fill="none" height="183" rx="2.5" ry="2.5" style="stroke:#181818;stroke-width:1;" width="815" x="7" y="7"/><text fill="#000000" font-family="sans-serif" font-size="14" font-weight="bold" lengthAdjust="spacing" textLength="34.5898" x="397.2051" y="21.9951">utils</text></g><!--cluster External Libraries--><g id="cluster_External Libraries"><rect fill="none" height="87" rx="2.5" ry="2.5" style="stroke:#181818;stroke-width:1;" width="884" x="257" y="214"/><text fill="#000000" font-family="sans-serif" font-size="14" font-weight="bold" lengthAdjust="spacing" textLength="140.3965" x="628.8018" y="228.9951">External Libraries</text></g><!--entity CONTEXT_UTILS--><g id="elem_CONTEXT_UTILS"><rect fill="#F1F1F1" height="36.2969" rx="2.5" ry="2.5" style="stroke:#181818;stroke-width:0.5;" width="194.8428" x="22.5" y="42"/><text fill="#000000" font-family="sans-serif" font-size="14" lengthAdjust="spacing" textLength="174.8428" x="32.5" y="64.9951">context_resolver_utils.py</text></g><!--entity TOKEN_UTILS--><g id="elem_TOKEN_UTILS"><rect fill="#F1F1F1" height="36.2969" rx="2.5" ry="2.5" style="stroke:#181818;stroke-width:0.5;" width="166.9521" x="22.5" y="138"/><text fill="#000000" font-family="sans-serif" font-size="14" lengthAdjust="spacing" textLength="146.9521" x="32.5" y="160.9951">token_usage_utils.py</text></g><!--entity DB_UTILS--><g id="elem_DB_UTILS"><rect fill="#F1F1F1" height="36.2969" rx="2.5" ry="2.5" style="stroke:#181818;stroke-width:0.5;" width="95.8311" x="253" y="42"/><text fill="#000000" font-family="sans-serif" font-size="14" lengthAdjust="spacing" textLength="75.8311" x="263" y="64.9951">db_utils.py</text></g><!--entity EMBEDDING--><g id="elem_EMBEDDING"><rect fill="#F1F1F1" height="36.2969" rx="2.5" ry="2.5" style="stroke:#181818;stroke-width:0.5;" width="120.7959" x="384.5" y="42"/><text fill="#000000" font-family="sans-serif" font-size="14" lengthAdjust="spacing" textLength="100.7959" x="394.5" y="64.9951">embedding.py</text></g><!--entity LOC_UTILS--><g id="elem_LOC_UTILS"><rect fill="#F1F1F1" height="36.2969" rx="2.5" ry="2.5" style="stroke:#181818;stroke-width:0.5;" width="98.21" x="541" y="42"/><text fill="#000000" font-family="sans-serif" font-size="14" lengthAdjust="spacing" textLength="78.21" x="551" y="64.9951">loc_utils.py</text></g><!--entity COUNTRY_UTILS--><g id="elem_COUNTRY_UTILS"><rect fill="#F1F1F1" height="36.2969" rx="2.5" ry="2.5" style="stroke:#181818;stroke-width:0.5;" width="131.5967" x="674" y="42"/><text fill="#000000" font-family="sans-serif" font-size="14" lengthAdjust="spacing" textLength="111.5967" x="684" y="64.9951">country_utils.py</text></g><!--entity MONITOR_UTILS--><g id="elem_MONITOR_UTILS"><rect fill="#F1F1F1" height="36.2969" rx="2.5" ry="2.5" style="stroke:#181818;stroke-width:0.5;" width="154.4834" x="225" y="138"/><text fill="#000000" font-family="sans-serif" font-size="14" lengthAdjust="spacing" textLength="134.4834" x="235" y="160.9951">monitoring_utils.py</text></g><!--entity PYMONGO--><g id="elem_PYMONGO"><rect fill="#F1F1F1" height="36.2969" rx="2.5" ry="2.5" style="stroke:#181818;stroke-width:0.5;" width="85.7002" x="386" y="249"/><text fill="#000000" font-family="sans-serif" font-size="14" lengthAdjust="spacing" textLength="65.7002" x="396" y="271.9951">pymongo</text></g><!--entity OPENAI--><g id="elem_OPENAI"><rect fill="#F1F1F1" height="36.2969" rx="2.5" ry="2.5" style="stroke:#181818;stroke-width:0.5;" width="67.4072" x="611.5" y="249"/><text fill="#000000" font-family="sans-serif" font-size="14" lengthAdjust="spacing" textLength="47.4072" x="621.5" y="271.9951">openai</text></g><!--entity DOTENV--><g id="elem_DOTENV"><rect fill="#F1F1F1" height="36.2969" rx="2.5" ry="2.5" style="stroke:#181818;stroke-width:0.5;" width="68.7129" x="507.5" y="249"/><text fill="#000000" font-family="sans-serif" font-size="14" lengthAdjust="spacing" textLength="48.7129" x="517.5" y="271.9951">dotenv</text></g><!--entity TIKTOKEN--><g id="elem_TIKTOKEN"><rect fill="#F1F1F1" height="36.2969" rx="2.5" ry="2.5" style="stroke:#181818;stroke-width:0.5;" width="77.1348" x="273.5" y="249"/><text fill="#000000" font-family="sans-serif" font-size="14" lengthAdjust="spacing" textLength="57.1348" x="283.5" y="271.9951">tiktoken</text></g><!--entity PYCOUNTRY--><g id="elem_PYCOUNTRY"><rect fill="#F1F1F1" height="36.2969" rx="2.5" ry="2.5" style="stroke:#181818;stroke-width:0.5;" width="90.7109" x="713.5" y="249"/><text fill="#000000" font-family="sans-serif" font-size="14" lengthAdjust="spacing" textLength="70.7109" x="723.5" y="271.9951">pycountry</text></g><!--entity REQUESTS--><g id="elem_REQUESTS"><rect fill="#F1F1F1" height="36.2969" rx="2.5" ry="2.5" style="stroke:#181818;stroke-width:0.5;" width="80.8193" x="839.5" y="249"/><text fill="#000000" font-family="sans-serif" font-size="14" lengthAdjust="spacing" textLength="60.8193" x="849.5" y="271.9951">requests</text></g><!--entity GEOPY--><g id="elem_GEOPY"><rect fill="#F1F1F1" height="36.2969" rx="2.5" ry="2.5" style="stroke:#181818;stroke-width:0.5;" width="63.2373" x="955.5" y="249"/><text fill="#000000" font-family="sans-serif" font-size="14" lengthAdjust="spacing" textLength="43.2373" x="965.5" y="271.9951">geopy</text></g><!--entity PANDAS--><g id="elem_PANDAS"><rect fill="#F1F1F1" height="36.2969" rx="2.5" ry="2.5" style="stroke:#181818;stroke-width:0.5;" width="71.0986" x="1053.5" y="249"/><text fill="#000000" font-family="sans-serif" font-size="14" lengthAdjust="spacing" textLength="51.0986" x="1063.5" y="271.9951">pandas</text></g><!--link DB_UTILS to PYMONGO--><g id="link_DB_UTILS_PYMONGO"><path d="M331.04,78.12 C352.26,91.72 379.71,112.64 396,138 C418.57,173.14 425.2107,217.0325 427.4607,242.9325 " fill="none" id="DB_UTILS-to-PYMONGO" style="stroke:#181818;stroke-width:1;"/><polygon fill="#181818" points="427.98,248.91,431.1861,239.5976,427.5473,243.9288,423.2161,240.29,427.98,248.91" style="stroke:#181818;stroke-width:1;"/></g><!--link DB_UTILS to DOTENV--><g id="link_DB_UTILS_DOTENV"><path d="M337.89,78.01 C365.88,91.9 404.45,113.24 434,138 C474.56,171.98 508.6151,217.4135 526.8851,243.6935 " fill="none" id="DB_UTILS-to-DOTENV" style="stroke:#181818;stroke-width:1;"/><polygon fill="#181818" points="530.31,248.62,528.457,238.947,527.4559,244.5146,521.8883,243.5136,530.31,248.62" style="stroke:#181818;stroke-width:1;"/></g><!--link LOC_UTILS to OPENAI--><g id="link_LOC_UTILS_OPENAI"><path d="M601.3,78.26 C610.61,93.37 623.32,116.25 630,138 C641.75,176.29 644.2705,217.6114 644.8105,242.6214 " fill="none" id="LOC_UTILS-to-OPENAI" style="stroke:#181818;stroke-width:1;"/><polygon fill="#181818" points="644.94,248.62,648.7448,239.5358,644.8321,243.6212,640.7467,239.7084,644.94,248.62" style="stroke:#181818;stroke-width:1;"/></g><!--link LOC_UTILS to PYCOUNTRY--><g id="link_LOC_UTILS_PYCOUNTRY"><path d="M607.12,78.27 C622.05,93.57 644.08,116.73 662,138 C694.16,176.17 725.2794,218.6598 743.1894,243.6998 " fill="none" id="LOC_UTILS-to-PYCOUNTRY" style="stroke:#181818;stroke-width:1;"/><polygon fill="#181818" points="746.68,248.58,744.6976,238.9327,743.7712,244.5132,738.1907,243.5868,746.68,248.58" style="stroke:#181818;stroke-width:1;"/></g><!--link LOC_UTILS to REQUESTS--><g id="link_LOC_UTILS_REQUESTS"><path d="M622.79,78.15 C669.31,103.21 756.1,152.66 822,206 C838.1,219.03 850.3349,231.7357 861.5149,244.3757 " fill="none" id="LOC_UTILS-to-REQUESTS" style="stroke:#181818;stroke-width:1;"/><polygon fill="#181818" points="865.49,248.87,862.5235,239.4785,862.1774,245.1248,856.5311,244.7787,865.49,248.87" style="stroke:#181818;stroke-width:1;"/></g><!--link LOC_UTILS to DOTENV--><g id="link_LOC_UTILS_DOTENV"><path d="M595.66,78.08 C603.5,104.64 615.09,157.05 600,198 C598.87,201.08 577.9115,225.2238 561.1115,244.3338 " fill="none" id="LOC_UTILS-to-DOTENV" style="stroke:#181818;stroke-width:1;"/><polygon fill="#181818" points="557.15,248.84,566.0965,244.7217,560.4513,245.0848,560.0881,239.4396,557.15,248.84" style="stroke:#181818;stroke-width:1;"/></g><!--link LOC_UTILS to GEOPY--><g id="link_LOC_UTILS_GEOPY"><path d="M639.05,77.73 C722.9,106.92 889.43,167.7 938,206 C953.31,218.07 963.5926,230.7814 972.5826,243.8114 " fill="none" id="LOC_UTILS-to-GEOPY" style="stroke:#181818;stroke-width:1;"/><polygon fill="#181818" points="975.99,248.75,974.1713,239.0705,973.1505,244.6345,967.5865,243.6137,975.99,248.75" style="stroke:#181818;stroke-width:1;"/></g><!--link COUNTRY_UTILS to PANDAS--><g id="link_COUNTRY_UTILS_PANDAS"><path d="M806.06,63.53 C869.01,69.16 963.25,86.4 1026,138 C1061.39,167.1 1077.0991,215.1631 1083.8891,242.8131 " fill="none" id="COUNTRY_UTILS-to-PANDAS" style="stroke:#181818;stroke-width:1;"/><polygon fill="#181818" points="1085.32,248.64,1087.0582,238.9457,1084.1276,243.7843,1079.2891,240.8536,1085.32,248.64" style="stroke:#181818;stroke-width:1;"/></g><!--link CONTEXT_UTILS to MONITOR_UTILS--><g id="link_CONTEXT_UTILS_MONITOR_UTILS"><path d="M152.96,78.02 C185.84,95.01 230.7496,118.1957 263.6496,135.1957 " fill="none" id="CONTEXT_UTILS-to-MONITOR_UTILS" style="stroke:#181818;stroke-width:1;"/><polygon fill="#181818" points="268.98,137.95,262.8206,130.2649,264.538,135.6547,259.1481,137.3721,268.98,137.95" style="stroke:#181818;stroke-width:1;"/></g><!--link CONTEXT_UTILS to TOKEN_UTILS--><g id="link_CONTEXT_UTILS_TOKEN_UTILS"><path d="M117.43,78.24 C114.91,95.2 111.9539,115.0155 109.4339,131.9355 " fill="none" id="CONTEXT_UTILS-to-TOKEN_UTILS" style="stroke:#181818;stroke-width:1;"/><polygon fill="#181818" points="108.55,137.87,113.8322,129.5574,109.2866,132.9245,105.9194,128.3789,108.55,137.87" style="stroke:#181818;stroke-width:1;"/></g><!--link EMBEDDING to OPENAI--><g id="link_EMBEDDING_OPENAI"><path d="M479.02,78.1 C504.2,91.9 538.28,113.07 563,138 C596.82,172.11 621.3562,217.0239 634.2362,243.2639 " fill="none" id="EMBEDDING-to-OPENAI" style="stroke:#181818;stroke-width:1;"/><polygon fill="#181818" points="636.88,248.65,636.5051,238.8083,634.6768,244.1616,629.3236,242.3333,636.88,248.65" style="stroke:#181818;stroke-width:1;"/></g><!--link EMBEDDING to DOTENV--><g id="link_EMBEDDING_DOTENV"><path d="M472.64,78.27 C491.93,91.95 516.4,112.89 529,138 C547.13,174.14 546.6217,217.181 544.4717,242.801 " fill="none" id="EMBEDDING-to-DOTENV" style="stroke:#181818;stroke-width:1;"/><polygon fill="#181818" points="543.97,248.78,548.7086,240.146,544.3881,243.7975,540.7366,239.477,543.97,248.78" style="stroke:#181818;stroke-width:1;"/></g><!--link MONITOR_UTILS to DOTENV--><g id="link_MONITOR_UTILS_DOTENV"><path d="M379.32,166.72 C414.7,173.72 455.99,185.68 489,206 C506.52,216.78 518.0458,230.237 527.5658,243.817 " fill="none" id="MONITOR_UTILS-to-DOTENV" style="stroke:#181818;stroke-width:1;"/><polygon fill="#181818" points="531.01,248.73,529.1191,239.0644,528.1399,244.6358,522.5684,243.6566,531.01,248.73" style="stroke:#181818;stroke-width:1;"/></g><!--link MONITOR_UTILS to PYMONGO--><g id="link_MONITOR_UTILS_PYMONGO"><path d="M326.76,174.14 C339.42,183.21 354.88,194.77 368,206 C383.91,219.62 396.6277,232.1282 408.5877,244.4882 " fill="none" id="MONITOR_UTILS-to-PYMONGO" style="stroke:#181818;stroke-width:1;"/><polygon fill="#181818" points="412.76,248.8,409.3761,239.5507,409.2831,245.2068,403.627,245.1138,412.76,248.8" style="stroke:#181818;stroke-width:1;"/></g><!--link TOKEN_UTILS to TIKTOKEN--><g id="link_TOKEN_UTILS_TIKTOKEN"><path d="M138.19,174.03 C176.77,194.45 235.7569,225.6534 274.3969,246.1034 " fill="none" id="TOKEN_UTILS-to-TIKTOKEN" style="stroke:#181818;stroke-width:1;"/><polygon fill="#181818" points="279.7,248.91,273.6164,241.1647,275.2808,246.5711,269.8743,248.2354,279.7,248.91" style="stroke:#181818;stroke-width:1;"/></g><!--link TOKEN_UTILS to DOTENV--><g id="link_TOKEN_UTILS_DOTENV"><path d="M139.63,174.19 C158.83,183.09 183.66,193.1 207,198 C237.68,204.44 460.61,192.71 489,206 C508.13,214.96 520.0126,229.3656 529.1226,243.7056 " fill="none" id="TOKEN_UTILS-to-DOTENV" style="stroke:#181818;stroke-width:1;"/><polygon fill="#181818" points="532.34,248.77,530.8902,239.0284,529.6589,244.5496,524.1377,243.3183,532.34,248.77" style="stroke:#181818;stroke-width:1;"/></g><!--link TOKEN_UTILS to PYMONGO--><g id="link_TOKEN_UTILS_PYMONGO"><path d="M140.13,174.21 C159.28,183 183.9,192.89 207,198 C241.98,205.73 335.2,191.61 368,206 C388.68,215.07 402.6722,229.7486 413.5822,244.0586 " fill="none" id="TOKEN_UTILS-to-PYMONGO" style="stroke:#181818;stroke-width:1;"/><polygon fill="#181818" points="417.22,248.83,414.9443,239.2477,414.1885,244.8538,408.5824,244.098,417.22,248.83" style="stroke:#181818;stroke-width:1;"/></g><!--SRC=[XL9BRi8m5Dpd51ORLlG6hSJ7GX4Gfn2gegf29dcA8eATsWOHLRrx4ziaE53gvSoyyNYUvJvZ1HNqW69-A3W3fbQgp049Y1LbQGwUR2G5ZVSqXQx0wp_VEruVhLMMInIQiRzarXNrZhMwXxuzX3vYpXISrLQ0vFa9n5QJJqNvYQX4On94-3tQhYD_lghbYk-1RO-oyd6L4PdXeDKbEvUUZ5eE3Zj8aeob5n8lHdWoyODfpUOyTaVdPDpEnlp8b2YxATT1jDoqgWDdcUAYki8LBaZWHsHfXJyF2iLd1OBH7CspdQ0Y0_blgxSZjkAYhFAaN2S8DrM6AQbXNW2ZcKP9Y8EXhtlZ2jZ9L4OY7BpfqhEzxjqKxSzqryRPzc6zRH4r9U3h2599pIpnwngl8jrD2josCSKarDg2ieGQPJWC9aDTpMLZQ31uQM8xe0tOx4U3zYaks2PpyIQN2zyrDccTLHjlazZvgPfmbttBN__OvWTUly45RIZ7zJ5nAUtg8dFnPODTmZfrOUlp2m00]--></g></svg>